<svg width="74" height="74" viewBox="0 0 74 74" fill="none" xmlns="http://www.w3.org/2000/svg">
<path d="M73.3251 14.5842L57.9864 29.7066C57.9864 29.7066 53.4024 29.7066 48.8184 25.1347C44.2344 20.5629 44.2344 15.991 44.2344 15.991L59.5732 0.692765C50.9341 -1.41733 40.532 1.39613 34.1849 7.72643C24.6643 17.2219 33.127 29.3549 30.6587 31.8167C17.2594 45.7082 3.50741 56.2587 3.1548 56.7862C-0.90027 60.8306 -1.07658 67.3367 2.80218 71.2052C6.68095 75.0737 13.2043 74.8979 17.2594 70.8535C17.7883 70.326 29.072 56.0828 42.295 42.8947C44.7633 40.433 56.3996 49.4009 66.2728 39.7296C72.4436 33.3993 75.4408 23.2005 73.3251 14.5842ZM11.0886 67.5125C8.62033 67.5125 6.68095 65.5783 6.68095 63.1165C6.68095 60.4789 8.62033 58.5446 11.0886 58.5446C13.5569 58.5446 15.4963 60.4789 15.4963 62.9407C15.4963 65.4024 13.5569 67.5125 11.0886 67.5125Z" fill="#E22E2E"/>
</svg>
