<svg width="77" height="77" viewBox="0 0 77 77" fill="none" xmlns="http://www.w3.org/2000/svg">
<path d="M73.3188 0H43.8696C41.8474 0 39.0154 1.17306 37.5871 2.60135L1.07497 39.1135C0.386504 39.8052 0 40.7414 0 41.7173C0 42.6932 0.386504 43.6294 1.07497 44.3211L32.6789 75.925C33.3706 76.6135 34.3068 77 35.2827 77C36.2586 77 37.1948 76.6135 37.8865 75.925L74.3987 39.4129C75.8318 37.9797 77 35.1526 77 33.1304V3.68115C76.9961 2.70605 76.607 1.77198 75.9175 1.08247C75.228 0.392957 74.294 0.00387722 73.3188 0ZM54.9131 29.4492C53.9459 29.4489 52.9883 29.2581 52.0949 28.8877C51.2015 28.5173 50.3898 27.9745 49.7061 27.2904C49.0225 26.6063 48.4802 25.7942 48.1104 24.9006C47.7406 24.0069 47.5504 23.0492 47.5508 22.082C47.5511 21.1149 47.7419 20.1572 48.1123 19.2638C48.4827 18.3704 49.0255 17.5587 49.7096 16.8751C50.3937 16.1914 51.2058 15.6492 52.0994 15.2794C52.9931 14.9096 53.9508 14.7194 54.918 14.7197C56.8712 14.7204 58.7442 15.4969 60.1249 16.8785C61.5056 18.2602 62.2809 20.1337 62.2803 22.0869C62.2796 24.0402 61.5031 25.9132 60.1215 27.2939C58.7398 28.6746 56.8663 29.4499 54.9131 29.4492Z" fill="#E22E2E"/>
</svg>
