<svg width="75" height="75" viewBox="0 0 75 75" fill="none" xmlns="http://www.w3.org/2000/svg">
<path d="M37.5 0C35.6255 0 33.7509 0.712411 32.2138 2.21222L19.8419 14.5482L37.5 32.171L55.1581 14.5482L42.7862 2.21222C41.2491 0.712411 39.3745 0 37.5 0ZM14.5557 19.835L2.22132 32.2085C-0.74044 35.1331 -0.74044 39.8575 2.22132 42.7822L14.5557 55.1556L32.1763 37.4953L14.5557 19.835ZM60.4443 19.835L42.8237 37.4953L60.4443 55.1556L72.7787 42.7822C75.7404 39.8575 75.7404 35.1331 72.7787 32.2085L60.4443 19.835ZM37.5 42.8196L19.8419 60.4424L32.2138 72.7784C35.1381 75.7405 39.8619 75.7405 42.7862 72.7784L55.1581 60.4424L37.5 42.8196Z" fill="#E22E2E"/>
</svg>
