<svg width="79" height="76" viewBox="0 0 79 76" fill="none" xmlns="http://www.w3.org/2000/svg">
<path d="M63.4226 0H40.9441L55.2473 19.0441L63.4226 0ZM15.7473 0L23.9226 19.0441L38.2258 0H15.7473ZM39.5849 7.23866L28.7118 21.7143H50.4581L39.5849 7.23866ZM67.9485 3.23339L60.0162 21.7143H79L67.9485 3.23339ZM11.2214 3.23339L0 21.7143H19.1537L11.2214 3.23339ZM21.0123 27.1429H0.169892L38.0219 76H38.112L21.0123 27.1429ZM58.1576 27.1429L41.0579 76H41.148L79 27.1429H58.1576ZM52.0534 27.1429H27.1165L39.5849 62.4286L52.0534 27.1429Z" fill="#E22E2E"/>
</svg>
