<svg width="96" height="67" viewBox="0 0 96 67" fill="none" xmlns="http://www.w3.org/2000/svg">
<path d="M28.8 33.5C38.085 33.5 45.6 26.0074 45.6 16.75C45.6 7.49263 38.085 0 28.8 0C19.515 0 12 7.49263 12 16.75C12 26.0074 19.515 33.5 28.8 33.5ZM40.32 38.2857H39.075C35.955 39.7812 32.49 40.6786 28.8 40.6786C25.11 40.6786 21.66 39.7812 18.525 38.2857H17.28C7.74 38.2857 0 46.0027 0 55.5143V59.8214C0 63.7846 3.225 67 7.2 67H50.4C54.375 67 57.6 63.7846 57.6 59.8214V55.5143C57.6 46.0027 49.86 38.2857 40.32 38.2857ZM72 33.5C79.95 33.5 86.4 27.0692 86.4 19.1429C86.4 11.2165 79.95 4.78571 72 4.78571C64.05 4.78571 57.6 11.2165 57.6 19.1429C57.6 27.0692 64.05 33.5 72 33.5ZM79.2 38.2857H78.63C76.545 39.0036 74.34 39.4821 72 39.4821C69.66 39.4821 67.455 39.0036 65.37 38.2857H64.8C61.74 38.2857 58.92 39.1681 56.445 40.5888C60.105 44.5221 62.4 49.7415 62.4 55.5143V61.2571C62.4 61.5862 62.325 61.9002 62.31 62.2143H88.8C92.775 62.2143 96 58.9989 96 55.0357C96 45.7783 88.485 38.2857 79.2 38.2857Z" fill="#E22E2E"/>
</svg>
