<svg width="85" height="76" viewBox="0 0 85 76" fill="none" xmlns="http://www.w3.org/2000/svg">
<path d="M50.8911 31.4855C50.1493 30.7398 49.1433 30.3209 48.0944 30.3209C47.0455 30.3209 46.0395 30.7398 45.2977 31.4855L42.501 34.2976C41.017 35.7892 39.0045 36.627 36.9062 36.6266C34.8079 36.6262 32.7956 35.7877 31.3122 34.2956C29.8287 32.8034 28.9955 30.7798 28.9959 28.67C28.9962 26.5601 29.8301 24.5368 31.3141 23.0452L53.585 0.643889C58.8577 -0.561986 64.3743 -0.0657054 69.3504 2.06216C74.3265 4.19003 78.5087 7.84118 81.3025 12.4964C84.0962 17.1517 85.3592 22.574 84.9118 27.9925C84.4645 33.411 82.3297 38.5498 78.8108 42.6782L70.4721 51.1701L50.8911 31.4855ZM7.53614 7.58066C11.6294 3.46544 16.9833 0.85859 22.7324 0.181568C28.4814 -0.495454 34.2896 0.796924 39.2177 3.84976L25.7168 17.421C22.7722 20.3509 21.0878 24.325 21.0253 28.4899C20.9628 32.6548 22.5272 36.6782 25.3825 39.696C28.2378 42.7139 32.1562 44.4855 36.2963 44.6303C40.4364 44.7752 44.4678 43.2817 47.5248 40.4706L48.0944 39.9217L64.8787 56.7983L48.0944 73.6709C46.6108 75.1622 44.5988 76 42.501 76C40.4031 76 38.3912 75.1622 36.9076 73.6709L7.53219 44.1419C5.14421 41.7411 3.24995 38.8908 1.95756 35.7539C0.665183 32.6169 0 29.2547 0 25.8593C0 22.4638 0.665183 19.1016 1.95756 15.9647C3.24995 12.8277 5.14421 9.97747 7.53219 7.57668L7.53614 7.58066Z" fill="#E22E2E"/>
</svg>
