<svg width="25" height="25" viewBox="0 0 25 25" fill="none" xmlns="http://www.w3.org/2000/svg">
<path d="M12.5 0C19.4107 0 25 5.55802 25 12.4301C25 19.3021 19.4107 24.8602 12.5 24.8602C5.58929 24.8602 0 19.3021 0 12.4301C0 5.55802 5.58929 0 12.5 0ZM10.2143 18.9825C15.75 18.9825 18.7857 14.4189 18.7857 10.459V10.0684C19.375 9.64219 19.8929 9.10948 20.2857 8.50573C19.75 8.73657 19.1607 8.89639 18.5536 8.98517C19.1786 8.61227 19.6607 8.02628 19.875 7.33375C19.2857 7.67114 18.6429 7.91974 17.9643 8.0618C17.4107 7.47581 16.625 7.12066 15.7679 7.12066C14.1071 7.12066 12.75 8.47021 12.75 10.1216C12.75 10.3525 12.7679 10.5833 12.8393 10.7964C10.3393 10.6721 8.10714 9.48238 6.625 7.67114C6.375 8.11507 6.21429 8.63003 6.21429 9.1805C6.21429 10.2104 6.75 11.1338 7.55357 11.6665C7.05357 11.6665 6.58929 11.5245 6.19643 11.2936V11.3291C6.19643 12.7852 7.23214 13.9927 8.60714 14.2768C8.35714 14.3479 8.08929 14.3834 7.82143 14.3834C7.625 14.3834 7.44643 14.3656 7.25 14.3301C7.625 15.5198 8.75 16.39 10.0536 16.4077C9.01786 17.2068 7.71429 17.6862 6.30357 17.6862C6.05357 17.6862 5.82143 17.6862 5.58929 17.6507C6.91071 18.5031 8.5 19.0003 10.1964 19.0003" fill="#F9F7F6"/>
</svg>
