<svg width="25" height="25" viewBox="0 0 25 25" fill="none" xmlns="http://www.w3.org/2000/svg">
<path d="M7.25 0H17.75C21.75 0 25 3.23182 25 7.20945V17.6507C25 19.5628 24.2362 21.3965 22.8765 22.7486C21.5169 24.1006 19.6728 24.8602 17.75 24.8602H7.25C3.25 24.8602 0 21.6283 0 17.6507V7.20945C0 5.29738 0.763837 3.46363 2.12348 2.1116C3.48311 0.759565 5.32718 0 7.25 0ZM7 2.48602C5.80653 2.48602 4.66193 2.95747 3.81802 3.79666C2.97411 4.63586 2.5 5.77405 2.5 6.96085V17.8993C2.5 20.3729 4.5125 22.3742 7 22.3742H18C19.1935 22.3742 20.3381 21.9027 21.182 21.0635C22.0259 20.2243 22.5 19.0861 22.5 17.8993V6.96085C22.5 4.48726 20.4875 2.48602 18 2.48602H7ZM19.0625 4.35053C19.4769 4.35053 19.8743 4.51423 20.1674 4.80562C20.4604 5.097 20.625 5.49221 20.625 5.90429C20.625 6.31637 20.4604 6.71158 20.1674 7.00296C19.8743 7.29435 19.4769 7.45805 19.0625 7.45805C18.6481 7.45805 18.2507 7.29435 17.9576 7.00296C17.6646 6.71158 17.5 6.31637 17.5 5.90429C17.5 5.49221 17.6646 5.097 17.9576 4.80562C18.2507 4.51423 18.6481 4.35053 19.0625 4.35053ZM12.5 6.21504C14.1576 6.21504 15.7473 6.86984 16.9194 8.03539C18.0915 9.20093 18.75 10.7818 18.75 12.4301C18.75 14.0784 18.0915 15.6592 16.9194 16.8248C15.7473 17.9903 14.1576 18.6451 12.5 18.6451C10.8424 18.6451 9.25268 17.9903 8.08058 16.8248C6.90848 15.6592 6.25 14.0784 6.25 12.4301C6.25 10.7818 6.90848 9.20093 8.08058 8.03539C9.25268 6.86984 10.8424 6.21504 12.5 6.21504ZM12.5 8.70106C11.5054 8.70106 10.5516 9.09394 9.84835 9.79326C9.14509 10.4926 8.75 11.4411 8.75 12.4301C8.75 13.4191 9.14509 14.3676 9.84835 15.0669C10.5516 15.7662 11.5054 16.1591 12.5 16.1591C13.4946 16.1591 14.4484 15.7662 15.1517 15.0669C15.8549 14.3676 16.25 13.4191 16.25 12.4301C16.25 11.4411 15.8549 10.4926 15.1517 9.79326C14.4484 9.09394 13.4946 8.70106 12.5 8.70106Z" fill="#F9F7F6"/>
</svg>
