<svg width="97" height="97" viewBox="0 0 97 97" fill="none" xmlns="http://www.w3.org/2000/svg">
<path fill-rule="evenodd" clip-rule="evenodd" d="M0 0H97V97H0V0Z" fill="#1E2325"/>
<path fill-rule="evenodd" clip-rule="evenodd" d="M23.5721 64.3521C24.5474 65.5709 34.1716 78.0867 48.5 78.0867C58.9178 78.0867 68.1067 72.6544 73.3805 64.4779L48.901 55.1094V49.3781L73.1908 63.2138C73.7786 63.5077 73.9743 63.3613 73.4354 62.9199L51.9863 47.2721L54.0928 46.0966L74.3155 62.924C76.7923 58.5204 78.0912 53.5523 78.0867 48.5C78.0867 32.435 65.1689 19.2912 49.1894 18.9223L53.7018 45.068L48.7053 48.0068L48.4255 19.2846C48.4255 18.9419 48.1809 18.9419 48.1316 19.2846L45.3744 46.4393L43.3172 45.2144L47.5081 18.9319C31.6685 19.4582 18.9138 32.5361 18.9138 48.4995C18.9091 53.4969 20.1798 58.4128 22.6054 62.7821L42.7295 46.0472L44.836 47.2721L23.3995 62.8993C22.8118 63.2903 22.9587 63.4871 23.6446 63.1439L47.9711 49.3288V55.06L23.6849 64.3184C23.5253 64.3788 23.6989 64.3078 23.5721 64.3521ZM48.5 17.4287C65.6132 17.4287 79.5707 31.3867 79.5707 48.5C79.5707 65.6132 65.6132 79.5707 48.5 79.5707C31.3867 79.5707 17.4287 65.6132 17.4287 48.5C17.4287 31.3867 31.3867 17.4287 48.5 17.4287ZM48.5 91.1303C71.98 91.1303 91.1303 71.98 91.1303 48.5C91.1303 25.0204 71.98 5.87012 48.5 5.87012C25.0204 5.87012 5.87012 25.0204 5.87012 48.5C5.87012 71.98 25.0204 91.1303 48.5 91.1303ZM48.5 92.7205C72.8556 92.7205 92.7205 72.8556 92.7205 48.5C92.7205 24.1443 72.8556 4.27942 48.5 4.27942C24.1443 4.27942 4.27942 24.1443 4.27942 48.5C4.27942 72.8556 24.1443 92.7205 48.5 92.7205ZM84.997 31.5035C84.9104 31.3253 84.7041 31.3218 84.6483 31.4597C84.447 32.131 84.5325 32.6453 84.9019 33.4439C85.6225 35.0185 86.2319 36.6414 86.6612 38.3398C86.7241 38.528 86.8645 38.5597 86.9757 38.449C87.3964 37.669 87.2479 36.6208 86.6929 35.1891C86.1796 33.9381 85.6291 32.7032 84.997 31.5035ZM81.4714 40.1031C81.5891 40.1474 81.716 40.0458 81.6737 39.8807L80.091 35.6385C79.8364 34.9662 79.3146 34.5173 78.765 34.389C78.606 34.3442 78.4782 34.473 78.5577 34.6014C79.0383 35.6883 79.4912 36.7879 79.8983 37.9065C80.2833 38.8999 80.8308 39.8067 81.4714 40.1031ZM88.8311 46.6073C88.821 46.4096 88.6323 46.325 88.5271 46.4297C88.0768 46.9682 87.954 47.4749 87.9806 48.3545C88.0249 50.0856 87.9484 51.8167 87.6762 53.5483C87.6606 53.7461 87.7773 53.8296 87.9228 53.7713C88.6157 53.2197 88.891 52.1977 88.9428 50.6623C88.9619 49.3112 88.9403 47.959 88.8311 46.6073ZM82.2116 53.1317C82.3032 53.2192 82.4592 53.1749 82.4849 53.0069L82.6952 48.4839C82.7259 47.7658 82.422 47.1488 81.9671 46.8147C81.8382 46.711 81.6702 46.7789 81.6918 46.9284C81.7074 48.1175 81.6928 49.3061 81.6269 50.4953C81.5917 51.5581 81.7381 52.6068 82.2116 53.1317ZM86.482 62.2899C86.5555 62.1072 86.4181 61.9517 86.2797 62.0031C85.6467 62.306 85.3246 62.7156 84.9834 63.5263C84.3031 65.1195 83.514 66.6614 82.5468 68.1243C82.4507 68.2974 82.5211 68.4222 82.6776 68.4298C83.5376 68.2154 84.213 67.4007 84.8979 66.0259C85.4766 64.804 86.0196 63.5656 86.482 62.2899ZM77.7495 65.4743C77.7958 65.5911 77.9569 65.6167 78.0495 65.4743C78.7404 64.1317 79.4303 62.7891 80.1212 61.4475C80.4463 60.8069 80.4277 60.1185 80.1524 59.6263C80.078 59.4779 79.8978 59.4708 79.8555 59.6158C79.378 60.705 78.8641 61.778 78.3147 62.8329C77.8391 63.785 77.5362 64.8005 77.7495 65.4743ZM81.5061 31.3284C81.5328 31.5055 81.3853 31.6273 81.2565 31.5437C80.1107 30.7275 79.4932 29.7201 79.3332 28.2848C79.3322 28.1027 79.4932 28.0388 79.6457 28.1208C80.7835 29.0201 81.3607 30.0165 81.5061 31.3284ZM78.0198 75.874C78.1561 75.7306 78.0867 75.5358 77.9382 75.5328C77.2372 75.5801 76.7874 75.8413 76.1699 76.4683C74.9491 77.6977 73.6457 78.839 72.208 79.8404C72.0535 79.9652 72.0731 80.1077 72.216 80.1726C73.0947 80.2913 74.0226 79.7836 75.1675 78.759C76.1573 77.8391 77.1185 76.8885 78.0198 75.874ZM68.7287 75.6058C68.7287 75.7316 68.8681 75.8141 69.008 75.716L72.4204 72.7409C72.9598 72.2654 73.1968 71.6192 73.1229 71.0601C73.1083 70.8951 72.9432 70.8211 72.8506 70.9394C72.0052 71.7759 71.1313 72.583 70.2303 73.3594C69.4362 74.0689 68.781 74.9003 68.7287 75.6058ZM85.2516 40.9405C85.3961 40.8489 85.5299 40.7669 85.6497 40.6134C85.9974 40.1102 85.9662 39.3689 85.7373 38.5723C85.1968 36.964 84.7021 35.4241 84.0288 33.8722C83.668 33.0881 83.4742 31.9197 83.6398 31.346C83.8975 30.4502 84.2945 29.5993 84.4918 28.7292C84.5647 28.5063 84.8792 28.5511 85.0508 28.8198C86.0603 30.5207 86.8997 32.2941 87.6616 34.1001C88.5629 36.103 88.5961 38.2568 87.7049 39.8455C87.1397 40.777 86.2385 41.6294 85.465 42.1543C85.4306 42.1765 85.4033 42.2083 85.3865 42.2457C85.3697 42.2831 85.3641 42.3246 85.3704 42.3651C85.4529 42.9645 85.5561 43.5699 85.627 44.1788C85.6386 44.3307 85.7539 44.3473 85.8198 44.297C86.3497 43.8884 86.8282 43.3907 87.3018 42.8663C87.351 42.8178 87.3857 42.7567 87.4023 42.6896C87.4188 42.6225 87.4164 42.5522 87.3954 42.4864C87.3546 42.3354 87.349 42.1771 87.3792 42.0236C87.4093 41.8701 87.4743 41.7256 87.5692 41.6013C87.6641 41.477 87.7864 41.3761 87.9265 41.3066C88.0666 41.237 88.2208 41.2006 88.3772 41.2002C88.9373 41.2002 89.3942 41.6576 89.3942 42.2182C89.3938 42.3791 89.3553 42.5377 89.2819 42.6809C89.2084 42.8242 89.1021 42.948 88.9717 43.0422C88.8412 43.1364 88.6903 43.1985 88.5312 43.2232C88.3722 43.2479 88.2095 43.2346 88.0566 43.1844C87.9484 43.1456 87.7688 43.1849 87.6792 43.2916C87.2665 43.676 86.8695 44.1239 86.5077 44.5461C86.1746 44.9457 85.9964 45.4303 85.8922 45.9214C85.8243 46.242 85.8188 46.4735 85.8324 46.7955C85.9555 49.6223 85.7535 52.4539 85.2305 55.2347C85.2079 55.3283 85.2592 55.4027 85.3256 55.3912C85.5072 55.3652 85.6844 55.315 85.8525 55.2417C86.3703 54.9156 86.633 54.2217 86.7341 53.3989C86.869 51.7075 87.019 50.0967 87.0094 48.4054C86.9858 47.5428 87.266 46.392 87.6435 45.93C88.2312 45.2069 88.9312 44.5803 89.4551 43.8577C89.6096 43.6811 89.8818 43.8466 89.9337 44.1612C90.1943 46.1217 90.2698 48.0818 90.2607 50.0419C90.303 52.2384 89.4883 54.2327 88.0445 55.3423C87.1589 55.9774 85.9954 56.4077 85.078 56.5868C85.0121 56.5974 84.9306 56.6653 84.916 56.7383C84.7876 57.2933 84.646 57.8452 84.4913 58.3934C84.4304 58.5721 84.4862 58.6863 84.685 58.6214C85.3523 58.4256 86.0825 58.1594 86.6889 57.8283C86.8177 57.7644 86.8912 57.6542 86.9022 57.5002C86.9084 57.4098 86.9265 57.3206 86.9561 57.235C87.0456 56.9806 87.2323 56.772 87.4752 56.6549C87.7181 56.5378 87.9976 56.5216 88.2524 56.61C88.5072 56.6993 88.7161 56.8861 88.8333 57.1293C88.9505 57.3726 88.9663 57.6524 88.8774 57.9073C88.8238 58.059 88.7351 58.1958 88.6185 58.3066C88.5019 58.4175 88.3608 58.4992 88.2066 58.545C88.0524 58.5909 87.8896 58.5997 87.7314 58.5706C87.5732 58.5416 87.4241 58.4755 87.2962 58.3778C87.2067 58.3048 87.024 58.2827 86.9052 58.3542C86.3884 58.5811 85.8666 58.872 85.385 59.1523C84.9074 59.4371 84.3589 59.9544 83.9578 60.4702C83.7782 60.7002 83.7072 60.8517 83.6091 61.1199C82.6241 63.7973 81.3332 66.352 79.7619 68.7332C79.7257 68.7856 79.7343 68.85 79.7972 68.8671C79.922 68.8958 80.0488 68.9063 80.1846 68.9073C80.791 68.8268 81.3179 68.304 81.7522 67.5979C82.577 66.1149 83.3837 64.7124 84.0776 63.17C84.4148 62.3759 85.148 61.445 85.6834 61.1818C86.5178 60.7691 87.415 60.4899 88.1915 60.0505C88.4059 59.9534 88.5835 60.2166 88.501 60.5251C87.9233 62.4162 87.177 64.2303 86.3542 66.0092C85.4796 68.0242 83.91 69.4996 82.1347 69.9093C81.1408 70.104 80.002 70.0381 79.1163 69.8524C79.0534 69.8388 78.9799 69.869 78.9512 69.9103C78.5559 70.4626 78.1456 71.0041 77.7208 71.5342C77.6766 71.592 77.665 71.6464 77.7561 71.661C78.4737 71.7556 79.299 71.8115 80.0246 71.7455C80.0938 71.7435 80.1609 71.7222 80.2186 71.6839C80.2762 71.6457 80.322 71.5921 80.3507 71.5291C80.4232 71.3904 80.5266 71.2702 80.653 71.1778C80.7794 71.0854 80.9254 71.0233 81.0796 70.9964C81.2338 70.9694 81.3921 70.9783 81.5424 71.0223C81.6926 71.0664 81.8307 71.1444 81.9459 71.2504C82.3566 71.6308 82.3832 72.2774 82.0018 72.6891C81.8924 72.8071 81.7565 72.8976 81.6054 72.953C81.4543 73.0084 81.2922 73.0273 81.1324 73.008C80.9725 72.9887 80.8196 72.9318 80.686 72.842C80.5524 72.7522 80.442 72.632 80.3638 72.4913C80.311 72.3892 80.1524 72.2956 80.0151 72.3142C79.4509 72.3152 78.8551 72.3751 78.3031 72.44C77.8472 72.4999 77.283 72.6846 76.7778 72.9236C76.418 73.0937 76.2962 73.2104 76.032 73.4988C74.0184 75.6822 71.7524 77.6186 69.2817 79.2673C69.2259 79.3136 69.2148 79.385 69.2651 79.4263C69.4106 79.5415 69.5444 79.62 69.7231 79.6945C70.3169 79.844 70.9997 79.5531 71.664 79.0574C72.9779 77.985 74.2461 76.9796 75.4598 75.802C76.0672 75.1886 77.0933 74.5963 77.6871 74.549C78.6161 74.4735 79.5526 74.546 80.4373 74.4242C80.6713 74.4136 80.7402 74.7241 80.5495 74.9798C79.313 76.5227 77.9498 77.9332 76.5277 79.2839C74.9707 80.8318 72.9669 81.6229 71.1663 81.3481C70.0939 81.1468 68.9773 80.6033 68.2139 80.0634C68.188 80.045 68.1572 80.035 68.1255 80.0348C68.0938 80.0347 68.0628 80.0443 68.0368 80.0624C67.4333 80.4314 66.8195 80.7832 66.1959 81.1171C66.1074 81.173 66.0435 81.1408 66.0042 81.0502L65.8301 80.704C65.7888 80.6089 65.8271 80.5309 65.9167 80.4821C66.5151 80.16 67.1044 79.8214 67.684 79.4665C67.7499 79.4223 67.7685 79.3644 67.756 79.3075C67.5919 78.4712 67.5889 77.7812 67.6301 76.8513C67.6613 75.4971 67.9995 74.1167 68.849 73.2854C70.0814 72.1501 71.0586 71.514 71.7335 70.8115C72.3122 70.2228 72.7585 69.64 73.2668 69.014C73.4062 68.8636 73.6679 68.8625 73.7544 69.0955C74.7689 71.5694 74.0699 73.151 72.5708 74.4197C71.5161 75.2898 70.4402 76.1367 69.3864 77.0068C68.9139 77.4521 68.6864 78.0092 68.7679 78.607C68.775 78.6906 68.8389 78.7338 68.8917 78.6956C71.3173 77.0784 73.5417 75.1782 75.5182 73.0353C75.7658 72.7671 75.8212 72.5784 75.9017 72.2981C76.1266 71.4371 76.1533 70.5534 75.875 69.6305C75.8418 69.4966 75.6964 69.3839 75.5811 69.3718C75.4214 69.3511 75.2689 69.2928 75.1361 69.2018C75.0032 69.1108 74.8939 68.9896 74.8169 68.8481C74.7399 68.7067 74.6975 68.549 74.6932 68.3881C74.6889 68.2271 74.7228 68.0674 74.7921 67.922C75.0346 67.4168 75.644 67.2014 76.1503 67.4434C76.6565 67.6855 76.8709 68.2954 76.6288 68.8017C76.5886 68.8852 76.5383 68.9607 76.4794 69.0276C76.4318 69.0778 76.3992 69.1403 76.3851 69.208C76.3711 69.2758 76.3762 69.3461 76.3999 69.4111C76.5805 70.0215 76.7743 70.6133 77.0309 71.1618C77.0475 71.2101 77.1009 71.2081 77.1291 71.1678C77.5387 70.6576 77.9126 70.1337 78.3192 69.6013C78.3534 69.564 78.3448 69.4825 78.3182 69.4342C77.7883 68.6517 77.516 67.9824 77.1879 67.0388C76.7159 65.7682 76.5217 64.3607 77.0022 63.2747C77.7284 61.765 78.4017 60.8124 78.7696 59.9091C79.0891 59.1493 79.2884 58.4417 79.5294 57.6733C79.6039 57.4816 79.846 57.3844 80.013 57.5691C81.8694 59.4915 81.805 61.2205 80.8811 62.9532C80.2224 64.1513 79.5355 65.3354 78.8783 66.5336C78.5738 67.1863 78.601 67.8556 79.0031 68.4177C79.0463 68.4786 79.1062 68.4746 79.1465 68.4237C80.9385 66.0727 82.0884 63.3386 83.0817 60.5382C83.1426 60.36 83.1537 60.1743 83.125 59.971C82.9886 59.0944 82.661 58.2757 82.04 57.5415C81.9555 57.4312 81.7768 57.3849 81.6676 57.4207C81.5129 57.4654 81.3498 57.4728 81.1916 57.4423C81.0334 57.4118 80.8848 57.3442 80.7578 57.2451C80.6308 57.146 80.5291 57.0182 80.461 56.8722C80.393 56.7262 80.3605 56.5661 80.3663 56.4052C80.3869 55.8446 80.8615 55.4047 81.4221 55.4254C81.5784 55.4316 81.7312 55.4736 81.8686 55.5484C82.006 55.6231 82.1244 55.7284 82.2146 55.8562C82.3047 55.9841 82.3643 56.1309 82.3885 56.2855C82.4128 56.44 82.4012 56.598 82.3546 56.7474C82.3083 56.8948 82.3369 57.0246 82.4331 57.1308C82.8055 57.5752 83.1809 58.0009 83.587 58.3753C83.6921 58.4699 83.7696 58.4352 83.8023 58.2837C83.9634 57.7166 84.1108 57.1444 84.2447 56.5667C84.2673 56.4967 84.222 56.4112 84.1712 56.3679C83.4752 55.917 82.9831 55.447 82.353 54.7873C81.3959 53.8291 80.633 52.63 80.6194 51.4418C80.6516 49.7671 80.868 48.6213 80.8278 47.647C80.8021 46.8222 80.6904 46.0961 80.5887 45.2969C80.5772 45.0916 80.7568 44.9019 80.9848 45.001C83.4732 45.9783 84.133 47.5771 84.0132 49.5381C83.912 50.9004 83.7792 52.2636 83.6791 53.6269C83.674 54.2815 83.9236 54.8346 84.4203 55.1889C84.4938 55.2457 84.5381 55.1828 84.5481 55.1209C85.0054 52.6895 85.2131 50.2178 85.1681 47.7441C85.1404 46.3497 83.9895 44.8219 82.819 44.1305C82.7033 44.055 82.5191 44.0701 82.427 44.1395C82.2957 44.2325 82.1442 44.293 81.985 44.3162C81.8257 44.3394 81.6633 44.3246 81.5109 44.2729C81.3585 44.2213 81.2205 44.1343 81.1081 44.0191C80.9958 43.9039 80.9123 43.7638 80.8645 43.6101C80.7854 43.3522 80.8117 43.0734 80.9377 42.8349C81.0638 42.5963 81.2792 42.4175 81.5368 42.3375C81.6865 42.2915 81.8447 42.2807 81.9992 42.3058C82.1537 42.3309 82.3004 42.3912 82.4278 42.4821C82.5553 42.573 82.6601 42.6921 82.7341 42.83C82.8082 42.9679 82.8494 43.121 82.8548 43.2775C82.8588 43.432 82.9292 43.5442 83.055 43.6131C83.6438 43.9639 84.2306 44.2895 84.836 44.5225C84.9341 44.5562 84.9688 44.4837 84.9517 44.372C84.8805 43.7264 84.7917 43.0829 84.6855 42.4421C84.677 42.4092 84.6592 42.3794 84.6344 42.3563C84.6095 42.3331 84.5785 42.3175 84.5451 42.3113C83.7284 42.1694 83.0903 41.9303 82.2519 41.5715C80.9948 41.0658 79.8223 40.2627 79.3438 39.1752C78.7157 37.6222 78.4651 36.4829 78.0454 35.6033C77.6987 34.855 77.3092 34.2315 76.9031 33.536C76.8105 33.3518 76.9021 33.1068 77.1507 33.1083C79.8233 33.0298 81.0567 34.241 81.717 36.0914C82.1593 37.3842 82.572 38.6901 83.0143 39.9834C83.2699 40.5923 83.7218 41.0049 84.3247 41.1317C84.3956 41.1488 84.4258 41.0673 84.4143 40.9898C83.9232 38.6287 83.1962 36.323 82.2444 34.1072C82.0607 33.6518 81.804 33.3664 81.412 33.0569C79.3342 31.3727 78.2306 29.8796 78.0122 26.4591C78.0062 26.2412 78.1234 26.202 78.3131 26.3052C80.6748 27.4545 83.0082 28.6311 82.6867 32.596C82.6474 33.0887 82.6806 33.3906 82.8855 33.8435C83.855 36.1023 84.5953 38.4527 85.0951 40.8595C85.1072 40.9526 85.1847 40.9898 85.2516 40.9405ZM71.4708 21.9085L72.7731 23.0563C72.4184 23.5278 72.2503 23.9722 72.2689 24.3914C72.2875 24.8081 72.4792 25.2142 72.8476 25.6092C73.2366 26.0269 73.62 26.2604 73.9944 26.3057C74.3699 26.3535 74.6758 26.2669 74.9123 26.0465C75.0648 25.9041 75.1514 25.739 75.174 25.5503C75.1997 25.3616 75.1473 25.119 75.0175 24.8237C74.9299 24.6224 74.699 24.1881 74.3296 23.5223C73.853 22.6653 73.61 21.9794 73.6004 21.4651C73.5858 20.7405 73.8324 20.1406 74.3417 19.6656C74.6688 19.3601 75.0613 19.1679 75.5202 19.0869C75.9782 19.0074 76.4452 19.0728 76.9197 19.2821C77.3942 19.4945 77.8623 19.8452 78.3222 20.3394C79.076 21.1476 79.465 21.9185 79.4927 22.6568C79.5184 23.395 79.2461 24.0492 78.674 24.6214L77.4068 23.3764C77.6861 23.012 77.8119 22.6708 77.7853 22.3538C77.7606 22.0358 77.5769 21.6946 77.2357 21.3292C76.884 20.9518 76.5322 20.7269 76.1769 20.6595C76.0726 20.635 75.9637 20.6372 75.8604 20.666C75.7572 20.6947 75.6628 20.7491 75.5862 20.824C75.4337 20.9664 75.3632 21.1521 75.3758 21.3816C75.3904 21.6735 75.6174 22.2059 76.0587 22.9753C76.498 23.7467 76.7793 24.3577 76.9031 24.8081C77.0249 25.2594 77.0279 25.6988 76.9122 26.129C76.7944 26.5578 76.5317 26.9614 76.1266 27.3398C75.7598 27.6831 75.3007 27.9117 74.8056 27.9975C74.2924 28.0921 73.7836 28.0272 73.2794 27.7982C72.7731 27.5703 72.2593 27.1762 71.7385 26.6177C70.9806 25.8044 70.5856 25.0058 70.5549 24.2198C70.5242 23.4337 70.8302 22.6623 71.4708 21.9085ZM64.1614 20.2523L69.3295 13.1392L74.6028 16.9703L73.7282 18.1745L69.8911 15.3866L68.7453 16.9633L72.3162 19.5574L71.4461 20.7546L67.8752 18.1604L66.4687 20.0963L70.4417 22.9828L69.5711 24.182L64.1614 20.2523ZM61.5904 11.2496L59.4094 16.6477L60.6368 17.1439C61.0957 17.3296 61.4389 17.4388 61.6649 17.469C61.9578 17.5098 62.224 17.4876 62.466 17.3995C62.7071 17.3115 62.9557 17.1052 63.2148 16.7861C63.4725 16.4661 63.7306 15.99 63.9853 15.36C64.2399 14.7299 64.3773 14.2247 64.404 13.8422C64.4286 13.4593 64.3793 13.1322 64.2555 12.864C64.1317 12.5927 63.9284 12.3633 63.6481 12.1725C63.4398 12.0266 62.9994 11.8203 62.3281 11.5485L61.5904 11.2496ZM60.5014 9.205L63.5102 10.4203C64.1886 10.6941 64.6837 10.9542 64.9983 11.2023C65.4134 11.5269 65.7327 11.9581 65.9222 12.4498C66.12 12.9465 66.2015 13.492 66.1698 14.0843C66.1356 14.6776 65.9655 15.3549 65.6565 16.1198C65.3852 16.7901 65.0677 17.3351 64.7039 17.7538C64.2615 18.2641 63.7779 18.6264 63.2501 18.8398C62.852 19.0038 62.38 19.0642 61.831 19.024C61.4223 18.9928 60.9131 18.8539 60.3037 18.6078L57.2078 17.3573L60.5014 9.205ZM50.2688 16.23L51.7166 7.55794L58.1453 8.63132L57.9008 10.0992L53.2223 9.31823L52.9017 11.2406L57.2546 11.9672L57.011 13.4271L52.6581 12.7004L52.2641 15.0605L57.1077 15.8692L56.8641 17.3311L50.2688 16.23ZM48.432 12.9903L50.1923 13.3828C50.0137 14.3621 49.6388 15.1104 49.0681 15.6287C48.499 16.145 47.7421 16.4454 46.8021 16.5275C45.6396 16.6291 44.6488 16.3156 43.831 15.5874C43.0133 14.8577 42.5423 13.8035 42.422 12.4272C42.2942 10.9693 42.5725 9.80435 43.2543 8.93125C43.9362 8.06016 44.8898 7.56952 46.1177 7.46183C47.1881 7.36823 48.0868 7.60826 48.8115 8.18396C49.2432 8.52212 49.5879 9.03441 49.8496 9.71829L48.1346 10.2895C47.9927 9.8436 47.7456 9.50342 47.3919 9.26942C47.0406 9.03491 46.6295 8.9398 46.1605 8.98056C45.5118 9.03743 45.0041 9.31622 44.6412 9.81844C44.2779 10.3186 44.142 11.0906 44.2331 12.1353C44.3302 13.2429 44.5969 14.0143 45.0378 14.4486C45.4766 14.8849 46.015 15.0741 46.6516 15.0183C47.1226 14.977 47.5131 14.7928 47.8256 14.4637C48.1376 14.1361 48.3389 13.6435 48.432 12.9903ZM36.338 13.2515L37.5996 12.8896C38.4178 12.6546 38.9205 12.4745 39.1052 12.3472C39.2879 12.2203 39.4132 12.0543 39.4806 11.852C39.5461 11.6502 39.5451 11.4222 39.4721 11.1691C39.3901 10.8838 39.2481 10.6774 39.0464 10.5456C38.8446 10.4138 38.5985 10.3654 38.3076 10.3977C38.1647 10.4193 37.747 10.529 37.0541 10.7273L35.7235 11.1087L36.338 13.2515ZM36.029 18.6189L33.6055 10.1677L37.1985 9.13707C38.1018 8.87791 38.7791 8.7672 39.232 8.80141C39.6849 8.83563 40.0905 9.01126 40.4478 9.32779C40.8051 9.64684 41.0542 10.0545 41.1976 10.5547C41.3793 11.1882 41.3431 11.7674 41.0895 12.2873C40.8358 12.8051 40.3517 13.2273 39.6407 13.5458C40.0724 13.6565 40.4453 13.805 40.7593 13.9942C41.0739 14.1829 41.5273 14.5473 42.1226 15.0872L43.6287 16.4399L41.5882 17.0251L39.8269 15.5391C39.1993 15.0077 38.7822 14.6801 38.5718 14.5553C38.3615 14.4305 38.1567 14.3636 37.9569 14.3505C37.7576 14.3394 37.4637 14.3897 37.0697 14.503L36.7255 14.6016L37.737 18.1297L36.029 18.6189ZM30.0552 22.1042L25.659 14.4899L31.3037 11.231L32.048 12.5198L27.9401 14.891L28.9149 16.5788L32.7374 14.3721L33.4776 15.6539L29.6551 17.861L30.8518 19.9333L35.1046 17.4775L35.8458 18.7613L30.0552 22.1042ZM23.5797 27.9653L17.472 21.6407L19.3833 19.7954L24.6973 23.002L21.6644 17.5923L23.5802 15.7424L29.6878 22.067L28.5022 23.2118L23.6944 18.2329L27.2462 24.4246L26.0168 25.6122L19.9575 21.842L24.7648 26.821L23.5797 27.9653ZM12.1242 31.5035C12.2103 31.3253 12.4166 31.3218 12.4725 31.4597C12.6748 32.131 12.5887 32.6453 12.2193 33.4439C11.4992 35.0185 10.8903 36.6414 10.4595 38.3398C10.3971 38.528 10.2567 38.5597 10.1455 38.449C9.72484 37.669 9.87279 36.6208 10.4278 35.1891C10.9426 33.9381 11.4927 32.7032 12.1242 31.5035ZM15.6498 40.1031C15.5321 40.1474 15.4053 40.0458 15.448 39.8807L17.0302 35.6385C17.2848 34.9662 17.8062 34.5173 18.3557 34.389C18.5152 34.3442 18.643 34.473 18.564 34.6014C18.0798 35.6876 17.6325 36.79 17.2229 37.9065C16.8379 38.8999 16.2914 39.8067 15.6498 40.1031ZM8.29064 46.6073C8.3002 46.4096 8.48891 46.325 8.59409 46.4297C9.04447 46.9682 9.16676 47.4749 9.14059 48.3545C9.09681 50.0856 9.1733 51.8167 9.44504 53.5483C9.46115 53.7461 9.3444 53.8296 9.19896 53.7713C8.50552 53.2197 8.23076 52.1977 8.17842 50.6623C8.1598 49.3112 8.18094 47.959 8.29064 46.6073ZM14.9096 53.1317C14.8185 53.2192 14.662 53.1749 14.6368 53.0069L14.4265 48.4839C14.3963 47.7658 14.6997 47.1488 15.1547 46.8147C15.284 46.711 15.4516 46.7789 15.4294 46.9284C15.4138 48.1175 15.4289 49.3061 15.4938 50.4953C15.5306 51.5581 15.3836 52.6068 14.9096 53.1317ZM10.6397 62.2899C10.5662 62.1072 10.7026 61.9517 10.842 62.0031C11.4751 62.306 11.7966 62.7156 12.1383 63.5263C12.8182 65.1195 13.6072 66.6614 14.5739 68.1243C14.6711 68.2974 14.5996 68.4222 14.4431 68.4298C13.5831 68.2154 12.9082 67.4007 12.2229 66.0259C11.6446 64.804 11.1022 63.5656 10.6397 62.2899ZM19.3722 65.4743C19.3259 65.5911 19.1649 65.6167 19.0718 65.4743L17.001 61.4475C16.6749 60.8069 16.694 60.1185 16.9693 59.6263C17.0438 59.4779 17.2244 59.4708 17.2667 59.6158C17.7438 60.7052 18.2577 61.7782 18.8076 62.8329C19.2826 63.785 19.5846 64.8005 19.3722 65.4743ZM15.6156 31.3284C15.5884 31.5055 15.7364 31.6273 15.8647 31.5437C17.0116 30.7275 17.628 29.7201 17.788 28.2848C17.7901 28.1027 17.6285 28.0388 17.4765 28.1208C16.3377 29.0201 15.761 30.0165 15.6156 31.3284ZM19.1015 75.874C18.9651 75.7306 19.035 75.5358 19.1835 75.5328C19.8835 75.5801 20.3344 75.8413 20.9513 76.4683C22.1716 77.6977 23.4755 78.839 24.9137 79.8404C25.0677 79.9652 25.0476 80.1077 24.9052 80.1726C24.027 80.2913 23.0986 79.7836 21.9538 78.759C20.9649 77.8391 20.0032 76.8885 19.1015 75.874ZM28.3925 75.6058C28.3925 75.7316 28.2531 75.8141 28.1132 75.716L24.7004 72.7409C24.1604 72.2654 23.9244 71.6192 23.9979 71.0601C24.0119 70.8951 24.177 70.8211 24.2696 70.9394C25.1153 71.7757 25.9894 72.5829 26.8904 73.3594C27.685 74.0689 28.3412 74.9003 28.3925 75.6058ZM11.8696 40.9405C11.7247 40.8489 11.5913 40.7669 11.472 40.6134C11.1233 40.1102 11.1545 39.3689 11.3845 38.5723C11.9249 36.964 12.4196 35.4241 13.0929 33.8722C13.4532 33.0881 13.647 31.9197 13.4814 31.346C13.2248 30.4502 12.8272 29.5993 12.6295 28.7292C12.5565 28.5063 12.242 28.5511 12.0704 28.8198C11.0614 30.5207 10.2215 32.2941 9.45964 34.1001C8.55836 36.103 8.52464 38.2568 9.41737 39.8455C9.98249 40.777 10.8838 41.6294 11.6567 42.1543C11.6913 42.1764 11.7186 42.2082 11.7354 42.2456C11.7522 42.2831 11.7577 42.3246 11.7513 42.3651C11.6688 42.9645 11.5651 43.5699 11.4942 44.1788C11.4831 44.3307 11.3674 44.3473 11.3009 44.297C10.7715 43.8884 10.2935 43.3907 9.81944 42.8663C9.77021 42.8179 9.73543 42.7567 9.71899 42.6896C9.70255 42.6225 9.7051 42.5521 9.72635 42.4864C9.76717 42.3354 9.77272 42.1771 9.74257 42.0236C9.71242 41.8701 9.64738 41.7256 9.55248 41.6013C9.45758 41.477 9.33536 41.3761 9.19527 41.3066C9.05517 41.237 8.90096 41.2006 8.74455 41.2002C8.47472 41.2007 8.21609 41.3081 8.02528 41.4989C7.83448 41.6897 7.72705 41.9484 7.72652 42.2182C7.72702 42.3791 7.76558 42.5376 7.83905 42.6808C7.91253 42.8239 8.01882 42.9477 8.14927 43.0419C8.27971 43.1361 8.43059 43.1982 8.58959 43.2229C8.74858 43.2477 8.91118 43.2345 9.0641 43.1844C9.17229 43.1456 9.35245 43.1849 9.44152 43.2916C9.85517 43.676 10.2512 44.1239 10.6135 44.5461C10.9472 44.9457 11.1253 45.4303 11.229 45.9214C11.2969 46.242 11.3025 46.4735 11.2884 46.7955C11.1655 49.6223 11.3673 52.4539 11.8897 55.2347C11.9124 55.3283 11.862 55.4027 11.7951 55.3912C11.6136 55.3652 11.4364 55.3149 11.2682 55.2417C10.7499 54.9156 10.4882 54.2217 10.3866 53.3989C10.2522 51.7075 10.1018 50.0967 10.1118 48.4054C10.1355 47.5428 9.85467 46.392 9.47725 45.93C8.88998 45.2069 8.18949 44.5803 7.66563 43.8577C7.51164 43.6811 7.2399 43.8466 7.18706 44.1612C6.92639 46.1217 6.85141 48.0818 6.85946 50.0419C6.81769 52.2384 7.63242 54.2327 9.07618 55.3423C9.96186 55.9774 11.1253 56.4077 12.0427 56.5868C12.1081 56.5974 12.1896 56.6653 12.2052 56.7383C12.3341 57.2944 12.4755 57.8469 12.6295 58.3934C12.6914 58.5721 12.6345 58.6863 12.4362 58.6214C11.7694 58.4256 11.0388 58.1594 10.4329 57.8283C10.3041 57.7644 10.2301 57.6542 10.2195 57.5002C10.2081 57.3442 10.161 57.193 10.0819 57.0581C10.0028 56.9233 9.89372 56.8084 9.76315 56.7223C9.63258 56.6363 9.48398 56.5814 9.32883 56.562C9.17368 56.5425 9.01613 56.5589 8.86834 56.61C8.61371 56.6995 8.40493 56.8863 8.2877 57.1295C8.17047 57.3726 8.15434 57.6523 8.24283 57.9073C8.29578 58.0595 8.38417 58.197 8.50071 58.3084C8.61726 58.4197 8.75861 58.5018 8.91311 58.5477C9.06762 58.5937 9.23083 58.6023 9.3893 58.5727C9.54776 58.5432 9.69692 58.4764 9.82448 58.3778C9.91405 58.3048 10.0972 58.2827 10.216 58.3542C10.7333 58.5811 11.2551 58.872 11.7362 59.1523C12.2138 59.4371 12.7623 59.9544 13.1639 60.4702C13.343 60.7002 13.414 60.8517 13.5131 61.1199C14.4973 63.7976 15.7881 66.3524 17.3598 68.7332C17.396 68.7856 17.3865 68.85 17.3241 68.8671C17.1968 68.8947 17.0668 68.9082 16.9366 68.9073C16.3297 68.8268 15.8033 68.304 15.3685 67.5979C14.5437 66.1149 13.7376 64.7124 13.0436 63.17C12.7065 62.3759 11.9722 61.445 11.4378 61.1818C10.6025 60.7691 9.70571 60.4899 8.92873 60.0505C8.71536 59.9534 8.53672 60.2166 8.61975 60.5251C9.19796 62.4162 9.94374 64.2303 10.7665 66.0092C11.6411 68.0242 13.2107 69.4996 14.9861 69.9093C15.9804 70.104 17.1193 70.0381 18.0049 69.8524C18.0668 69.8388 18.1413 69.869 18.1695 69.9103C18.565 70.4624 18.9751 71.0039 19.3994 71.5342C19.4437 71.592 19.4562 71.6464 19.3646 71.661C18.647 71.7556 17.8218 71.8115 17.0956 71.7455C17.0265 71.7434 16.9595 71.722 16.9019 71.6838C16.8444 71.6456 16.7987 71.592 16.77 71.5291C16.6977 71.3903 16.5943 71.27 16.468 71.1776C16.3416 71.0851 16.1957 71.023 16.0415 70.996C15.8873 70.9691 15.7289 70.978 15.5787 71.0221C15.4285 71.0662 15.2905 71.1443 15.1753 71.2504C14.7636 71.6308 14.738 72.2774 15.1184 72.6891C15.228 72.807 15.3639 72.8974 15.515 72.9527C15.6662 73.0081 15.8283 73.0269 15.9881 73.0076C16.1479 72.9883 16.3008 72.9315 16.4345 72.8417C16.5681 72.752 16.6786 72.6319 16.7569 72.4913C16.8103 72.3892 16.9688 72.2956 17.1067 72.3142C17.6708 72.3152 18.2661 72.3751 18.8186 72.44C19.2746 72.4999 19.8382 72.6846 20.3439 72.9236C20.7037 73.0937 20.825 73.2104 21.0897 73.4988C23.1034 75.6823 25.3696 77.6188 27.8405 79.2673C27.8959 79.3136 27.9064 79.385 27.8571 79.4263C27.7181 79.5374 27.5637 79.6278 27.3987 79.6945C26.8049 79.844 26.1225 79.5531 25.4577 79.0574C24.1438 77.985 22.8762 76.9796 21.6614 75.802C21.0545 75.1886 20.0284 74.5963 19.4346 74.549C18.5056 74.4735 17.5691 74.546 16.685 74.4242C16.451 74.4136 16.382 74.7241 16.5727 74.9798C17.8092 76.5227 19.1729 77.9332 20.5945 79.2839C22.1515 80.8318 24.1554 81.6229 25.9564 81.3481C27.0278 81.1468 28.1455 80.6033 28.9083 80.0634C28.9342 80.045 28.9651 80.035 28.9968 80.0348C29.0285 80.0347 29.0594 80.0443 29.0855 80.0624C29.6891 80.4314 30.3031 80.7832 30.9268 81.1171C31.0144 81.173 31.0783 81.1408 31.1185 81.0502L31.2916 80.704C31.3334 80.6089 31.2957 80.5309 31.2061 80.4821C30.6075 80.1603 30.0182 79.8216 29.4387 79.4665C29.3728 79.4223 29.3537 79.3644 29.3668 79.3075C29.5308 78.4712 29.5328 77.7812 29.4921 76.8513C29.4609 75.4971 29.1227 74.1167 28.2738 73.2854C27.0409 72.1501 26.0636 71.514 25.3883 70.8115C24.8101 70.2228 24.3632 69.64 23.8559 69.014C23.7161 68.8636 23.4549 68.8625 23.3678 69.0955C22.3528 71.5694 23.0523 73.151 24.5514 74.4197C25.6057 75.2898 26.6826 76.1367 27.7363 77.0068C28.2089 77.4521 28.4358 78.0092 28.3543 78.607C28.3478 78.6906 28.2833 78.7338 28.231 78.6956C25.8052 77.0785 23.5806 75.1784 21.604 73.0353C21.3559 72.7671 21.3011 72.5784 21.2206 72.2981C20.9956 71.4371 20.9689 70.5534 21.2467 69.6305C21.2809 69.4966 21.4259 69.3839 21.5406 69.3718C21.7003 69.3512 21.8529 69.293 21.9858 69.202C22.1187 69.111 22.2282 68.9898 22.3052 68.8483C22.3822 68.7068 22.4245 68.5491 22.4288 68.3881C22.433 68.2271 22.3991 68.0674 22.3297 67.922C22.2126 67.6789 22.0039 67.492 21.7494 67.4023C21.4948 67.3126 21.2151 67.3274 20.9715 67.4434C20.7282 67.5605 20.5413 67.7691 20.4516 68.0237C20.3619 68.2783 20.3767 68.558 20.4929 68.8017C20.5331 68.8852 20.584 68.9607 20.6418 69.0276C20.743 69.1443 20.7687 69.2742 20.7219 69.4111C20.5412 70.0215 20.3475 70.6133 20.0913 71.1618C20.0742 71.2101 20.0214 71.2081 19.9927 71.1678C19.5836 70.6576 19.2092 70.1337 18.803 69.6013C18.7683 69.564 18.7774 69.4825 18.8036 69.4342C19.3329 68.6517 19.6052 67.9824 19.9333 67.0388C20.4053 65.7682 20.6006 64.3607 20.119 63.2747C19.3928 61.765 18.72 60.8124 18.3522 59.9091C18.0321 59.1493 17.8323 58.4417 17.5923 57.6733C17.5178 57.4816 17.2753 57.3844 17.1092 57.5691C15.2523 59.4915 15.3172 61.2205 16.2411 62.9532C16.8993 64.1513 17.5867 65.3354 18.2445 66.5336C18.5484 67.1863 18.5212 67.8556 18.1187 68.4177C18.0764 68.4786 18.016 68.4746 17.9752 68.4237C16.1833 66.0727 15.0334 63.3386 14.04 60.5382C13.9805 60.3553 13.9658 60.1608 13.9972 59.971C14.1341 59.0944 14.4617 58.2757 15.0822 57.5415C15.1672 57.4312 15.3449 57.3849 15.4551 57.4207C15.6098 57.4653 15.7729 57.4726 15.931 57.4421C16.0891 57.4115 16.2377 57.3439 16.3646 57.2448C16.4915 57.1457 16.5932 57.018 16.6612 56.872C16.7292 56.7261 16.7617 56.5661 16.7559 56.4052C16.7453 56.1355 16.6283 55.881 16.4306 55.6974C16.2328 55.5138 15.9704 55.416 15.7007 55.4254C15.5443 55.4316 15.3916 55.4737 15.2541 55.5484C15.1167 55.6231 14.9982 55.7284 14.908 55.8562C14.8178 55.984 14.7581 56.1309 14.7337 56.2854C14.7093 56.4399 14.7207 56.598 14.7672 56.7474C14.8135 56.8948 14.7848 57.0246 14.6887 57.1308C14.3168 57.5752 13.9414 58.0009 13.5353 58.3753C13.4301 58.4699 13.3526 58.4352 13.3194 58.2837C13.1579 57.7151 13.0106 57.1426 12.8776 56.5667C12.8549 56.4967 12.8997 56.4112 12.9515 56.3679C13.6465 55.917 14.1396 55.447 14.7697 54.7873C15.7268 53.8291 16.4892 52.63 16.5033 51.4418C16.4706 49.7671 16.2542 48.6213 16.295 47.647C16.3201 46.8222 16.4318 46.0961 16.533 45.2969C16.5451 45.0916 16.3649 44.9019 16.137 45.001C13.6485 45.9783 12.9898 47.5771 13.109 49.5381C13.2102 50.9004 13.3425 52.2636 13.4437 53.6269C13.4487 54.2815 13.1986 54.8346 12.7024 55.1889C12.628 55.2457 12.5842 55.1828 12.5741 55.1209C12.1169 52.6895 11.9091 50.2178 11.9541 47.7441C11.9813 46.3497 13.1322 44.8219 14.3027 44.1305C14.4189 44.055 14.6026 44.0701 14.6947 44.1395C14.8261 44.2326 14.9777 44.2932 15.137 44.3164C15.2963 44.3397 15.4589 44.3249 15.6114 44.2733C15.7639 44.2216 15.902 44.1346 16.0144 44.0193C16.1269 43.9041 16.2104 43.7639 16.2582 43.6101C16.4233 43.0742 16.1214 42.5025 15.5854 42.3375C15.4358 42.2919 15.2777 42.2813 15.1233 42.3065C14.9689 42.3317 14.8224 42.3921 14.6951 42.4829C14.5678 42.5738 14.463 42.6927 14.389 42.8304C14.3149 42.9682 14.2735 43.1212 14.268 43.2775C14.2629 43.432 14.1935 43.5442 14.0672 43.6131C13.4779 43.9639 12.8921 44.2895 12.2863 44.5225C12.1886 44.5562 12.1534 44.4837 12.1705 44.372C12.2425 43.7233 12.331 43.0802 12.4367 42.4421C12.4454 42.4093 12.4631 42.3796 12.488 42.3564C12.5128 42.3332 12.5437 42.3176 12.5771 42.3113C13.3939 42.1694 14.032 41.9303 14.8708 41.5715C16.1279 41.0658 17.2999 40.2627 17.779 39.1752C18.4065 37.6222 18.6581 36.4829 19.0773 35.6033C19.4245 34.855 19.8125 34.2315 20.2191 33.536C20.3112 33.3518 20.2196 33.1068 19.971 33.1083C17.2989 33.0298 16.065 34.241 15.4053 36.0914C14.9629 37.3842 14.5493 38.6901 14.1069 39.9834C13.8518 40.5923 13.3994 41.0049 12.7965 41.1317C12.7261 41.1488 12.6959 41.0673 12.7075 40.9898C13.1989 38.6288 13.9261 36.323 14.8779 34.1072C15.0611 33.6518 15.3177 33.3664 15.7097 33.0569C17.788 31.3727 18.8921 29.8796 19.1095 26.4591C19.1161 26.2412 18.9983 26.202 18.8091 26.3052C16.4469 27.4545 14.113 28.6311 14.4355 32.596C14.4748 33.0887 14.4416 33.3906 14.2363 33.8435C13.2671 36.1024 12.5269 38.4529 12.0266 40.8595C12.0145 40.9526 11.937 40.9898 11.8696 40.9405ZM40.8937 89.1194L41.7754 80.3718L48.2599 81.0255L48.111 82.5065L43.3917 82.03L43.1965 83.9694L47.5876 84.4128L47.4392 85.8852L43.048 85.4429L42.808 87.8231L47.6938 88.3158L47.5454 89.7912L40.8937 89.1194ZM58.2289 88.6278L57.7347 87.1055L60.3651 80.2551L56.4691 81.5212L56.0091 80.1061L62.1304 78.1169L62.5561 79.4288L59.808 86.5575L64.566 85.0116L65.0239 86.4211L58.2289 88.6278ZM49.7862 89.755L48.738 81.026L50.4535 80.8197L54.7259 86.2204L54.0259 80.391L55.6644 80.1942L56.7121 88.9232L54.9418 89.1355L50.7398 83.8652L51.4227 89.5577L49.7862 89.755ZM35.3532 78.2165L38.6669 79.388C39.3231 79.62 39.8037 79.8203 40.1061 79.9904C40.3986 80.149 40.6526 80.3701 40.8499 80.6381C41.0432 80.9012 41.1725 81.2052 41.2399 81.5549C41.3072 81.9093 41.2768 82.2753 41.1519 82.6137C41.0206 82.9941 40.7805 83.3276 40.4614 83.5729C40.1411 83.8203 39.7558 83.9693 39.3523 84.0016C39.8042 84.3262 40.1051 84.7142 40.2506 85.1636C40.397 85.6145 40.3849 86.0794 40.2154 86.558C40.0791 86.9397 39.8562 87.2845 39.5642 87.5655C39.2627 87.8583 38.9226 88.0586 38.5446 88.1638C38.1667 88.269 37.746 88.268 37.282 88.1608C36.9942 88.0908 36.3133 87.8719 35.2435 87.5021L32.4219 86.5047L35.3532 78.2165ZM36.5403 80.1882L35.8624 82.105L36.9585 82.4924C37.6106 82.7234 38.0193 82.8573 38.1848 82.8945C38.4822 82.9625 38.7424 82.9438 38.9648 82.8377C39.1873 82.7315 39.3443 82.5448 39.4394 82.2766C39.53 82.0199 39.534 81.7859 39.4499 81.5766C39.3639 81.3652 39.1878 81.1951 38.9216 81.0633C38.7625 80.9858 38.289 80.8076 37.502 80.5288L36.5403 80.1882ZM35.3748 83.4843L34.5913 85.6995L36.1392 86.247C36.7431 86.4614 37.1306 86.5802 37.3052 86.6028C37.5528 86.649 37.8088 86.6083 38.0298 86.4876C38.2482 86.3678 38.4108 86.1605 38.5144 85.8666C38.6025 85.618 38.6151 85.386 38.5567 85.1696C38.4968 84.9532 38.368 84.7635 38.1682 84.6045C37.9684 84.4445 37.4864 84.2311 36.726 83.9619L35.3748 83.4843Z" fill="#AAAAAA"/>
</svg>
