<svg width="64" height="104" viewBox="0 0 64 104" fill="none" xmlns="http://www.w3.org/2000/svg">
<g clip-path="url(#clip0_7_87)">
<path d="M3.07959 8.98828C3.07959 5.72421 5.75501 3.06311 9.04473 3.06311H54.9634C58.2935 3.06311 60.969 5.72421 60.969 8.98828V95.0037C60.969 98.2678 58.2935 100.929 54.9634 100.929H9.04473C5.7631 100.929 3.07959 98.2678 3.07959 95.0037V8.98828Z" fill="#1E2325"/>
<path d="M5.55292 19.1422V8.98825C5.55292 7.08287 7.12099 5.52319 9.03663 5.52319H54.9634C56.9356 5.52319 58.4956 7.08287 58.4956 8.98825V19.1342L5.55292 19.1422ZM5.55292 21.6024H58.4875V82.3977H5.55292V21.6024Z" fill="#AAAAAA"/>
<path d="M47.3332 14.1657C47.5352 14.4632 47.9879 14.8169 48.295 14.9697C49.1518 15.4199 49.9116 15.5726 50.7199 15.5726C51.9808 15.5726 52.7406 15.0179 52.7406 14.214C52.7406 13.2572 51.7787 13.1045 50.3157 12.9115C48.4486 12.6623 47.4383 11.8021 47.4383 10.2987C47.4868 8.79528 48.9012 7.63758 50.9705 7.63758C52.385 7.63758 53.3468 7.94308 53.953 8.24054V10.2022C53.751 9.84846 53.2983 9.59923 52.8457 9.39824C52.2395 9.19725 51.609 9.09274 50.9785 9.09274C49.9682 9.09274 49.362 9.49472 49.362 10.0012C49.362 10.8534 50.1703 10.9499 51.9404 11.3036C53.7105 11.6574 54.7694 12.4131 54.7209 13.9647C54.6724 15.7736 53.2579 16.9796 50.728 16.9796C49.6125 16.9796 48.2061 16.7786 47.3413 16.3284L47.3332 14.1657ZM15.9636 10.5479C15.9636 11.4564 15.2039 11.8021 14.048 11.8021H11.9303V9.24549H14.048C15.2039 9.24549 15.9636 9.59119 15.9636 10.5479ZM17.2731 14.5677C16.8204 13.7155 16.4648 13.0643 15.8101 12.7588C17.2246 12.4613 17.9278 11.6574 17.9278 10.4514C17.9278 9.29373 17.4186 8.3933 16.4648 8.03955C15.8586 7.79033 15.0988 7.79033 13.9348 7.79033H9.29529C9.74793 8.08779 9.9985 8.99626 9.9985 9.80022V14.8732C9.9985 15.6289 9.74793 16.5776 9.29529 16.8349H12.6254C12.1728 16.5856 11.9222 15.6289 11.9222 14.8732V13.2653H13.3367C14.048 13.2653 14.4521 13.5145 14.7512 14.0692C15.2523 14.8732 15.608 15.9746 16.2142 16.8349H18.8896C18.0894 16.2801 17.6772 15.4279 17.2731 14.5677ZM24.3536 17.0841C25.6146 17.0841 26.6815 16.7303 27.4817 16.0229C28.4436 15.2189 29.0983 14.013 29.0983 12.3086C29.0983 10.6524 28.4436 9.39824 27.4817 8.58625C26.6734 7.93504 25.6146 7.5813 24.3536 7.5813C23.0927 7.5813 22.0339 7.93504 21.2175 8.58625C20.2637 9.3902 19.6009 10.6524 19.6009 12.3086C19.6009 14.013 20.2556 15.2269 21.2175 16.0229C22.0258 16.7303 23.1412 17.0841 24.3536 17.0841ZM22.4299 14.7204C21.8722 14.214 21.6216 13.418 21.6216 12.3086C21.6216 11.2554 21.8722 10.4514 22.4299 9.8967C22.8826 9.44648 23.5373 9.14098 24.3456 9.14098C25.1538 9.14098 25.8085 9.43844 26.2612 9.8967C26.8189 10.4514 27.118 11.2473 27.118 12.3086C27.118 13.418 26.8189 14.222 26.2612 14.7204C25.8085 15.1707 25.1538 15.4762 24.3456 15.4762C23.5454 15.4762 22.8826 15.1707 22.4299 14.7204ZM37.4802 14.5195C36.971 15.1787 35.9121 15.3717 34.7563 15.3717H32.9861V9.79218C32.9861 9.03646 33.2367 8.07975 33.6408 7.78229H30.3592C30.8118 8.07975 31.0705 9.03646 31.0705 9.79218V14.8732C31.0705 15.6772 30.8118 16.5294 30.3592 16.8349H37.1811L37.4802 14.5195ZM45.7166 14.5195C45.2074 15.1787 44.1485 15.4279 42.9927 15.3717H41.174V9.79218C41.174 9.03646 41.4246 8.07975 41.8853 7.78229H38.6037C39.0563 8.07975 39.315 9.03646 39.315 9.79218V14.8732C39.315 15.6772 39.0563 16.5776 38.6037 16.8831H45.369L45.7166 14.5195Z" fill="#1E2325"/>
<path d="M64 8.98825C64 4.01979 59.9586 0 54.9634 0H9.04471C4.04142 0 0 4.01979 0 8.98825V95.0037C0 99.9802 4.04142 104 9.04471 104H54.9634C59.9586 104 64 99.9802 64 95.0037V8.98825ZM3.07957 8.98825C3.07957 5.72418 5.75499 3.06308 9.04471 3.06308H54.9634C58.2935 3.06308 60.9689 5.72418 60.9689 8.98825V95.0037C60.9689 98.2678 58.2935 100.929 54.9634 100.929H9.04471C5.76307 100.929 3.07957 98.2678 3.07957 95.0037V8.98825Z" fill="#AAAAAA"/>
<path d="M5.55292 84.8578V95.0037C5.55292 96.9172 7.12099 98.4688 9.03663 98.4688H54.9634C56.9356 98.4688 58.4956 96.9172 58.4956 95.0037V84.8578H5.55292Z" fill="#AAAAAA"/>
<path d="M28.2415 72.702V59.1875C29.5509 59.1392 30.8199 59.091 32.0808 58.9865C31.6282 57.9333 31.1675 56.8801 30.6178 55.8752C29.858 55.9716 29.0578 55.9716 28.2415 56.0279V53.2141C26.4713 53.616 24.5557 53.9135 22.5835 54.1145V72.702C22.5835 76.8183 20.6598 77.9277 19.5039 78.6754H31.321C30.2137 77.9277 28.2415 76.8183 28.2415 72.702ZM55.7232 78.6352C54.7613 77.7267 53.5489 76.3198 52.9427 73.5622C51.8353 68.4812 49.5074 61.1974 44.6092 55.7707C49.4104 53.1578 52.3364 49.0415 52.3364 43.9686C52.3849 40.3507 50.5178 36.5319 47.1877 34.2728C45.7732 33.3643 44.1081 32.7131 42.1359 32.3112C42.8472 33.8226 43.2998 35.4305 43.3968 37.0384C45.466 38.6463 46.5814 41.1065 46.5814 44.0731C46.5814 47.8436 44.6658 52.2574 37.949 54.5245C38.4986 55.5777 39.0563 56.6872 39.509 57.7404C39.8646 57.6439 40.2202 57.5394 40.5759 57.4429C43.704 61.0607 46.2258 66.7366 46.9856 72.0106C47.5433 75.8294 46.1773 77.7348 45.272 78.6433L55.7232 78.6352Z" fill="#1E2325"/>
<path d="M17.9844 49.9419V28.846H26.0107C28.9447 28.8943 31.119 29.4972 32.8326 30.7032C35.1039 32.3111 36.3163 34.8757 36.3163 37.9388C36.3244 43.1083 32.7356 49.6927 17.9844 49.9419ZM43.9465 72.5492C42.9361 71.6488 41.7237 70.2418 41.166 67.4762C40.0587 62.4032 37.8359 55.2641 33.3903 50.1911C33.5924 50.0946 33.7459 50.0384 33.9399 49.9419C38.9917 47.3773 42.0794 43.1083 42.0794 37.8825C42.1279 34.2165 40.2607 30.4459 36.9306 28.1868C34.3037 26.4261 30.7634 25.7267 26.2693 25.7267H9.24683C10.4108 26.4824 12.3264 27.5838 12.3264 31.7001V66.5677C12.3264 70.7323 10.4108 71.7935 9.24683 72.5412H21.064C19.9566 71.7854 17.9844 70.7323 17.9844 66.5677V53.0532C22.1228 53.0532 26.0107 52.5467 29.3004 51.6945C32.283 55.2641 34.5057 60.7873 35.217 65.8603C35.7182 69.6871 34.4087 71.6407 33.5035 72.5412L43.9465 72.5492Z" fill="#1E2325"/>
<path d="M28.2416 46.927V35.0204H34.6028C34.1501 33.7099 33.3418 32.6567 32.2345 31.8528H19.4959C20.6599 32.6085 22.5755 33.6617 22.5755 37.8342V48.3339C24.7013 48.0365 26.625 47.5862 28.2416 46.927ZM39.8081 91.6994C39.8081 93.4038 40.8185 94.7143 42.5886 94.7143C43.8496 94.7143 45.0135 94.3605 45.5146 93.7575L45.2075 95.7192C44.7548 95.9202 43.9465 96.1694 42.6371 96.1694C39.8081 96.1694 37.8359 94.5133 37.8359 91.6994C37.8359 90.196 38.4421 89.0383 39.3474 88.2826C40.1557 87.5751 41.263 87.1731 42.629 87.1731C43.9385 87.1731 44.7468 87.4224 45.1994 87.6796V89.5368C44.6498 88.9338 43.8415 88.6283 42.5725 88.6283C40.8185 88.6283 39.8081 89.9387 39.8081 91.6994ZM15.6566 89.987C15.6566 90.8392 14.9534 91.1929 13.8379 91.1929H11.8172V88.781H13.8379C14.9534 88.781 15.6566 89.0866 15.6566 89.987ZM16.9256 93.8058C16.5214 93.0018 16.1658 92.3506 15.5596 92.1014C16.8771 91.8522 17.5318 91.0482 17.5803 89.9387C17.5803 88.781 17.0792 87.9289 16.1658 87.5751C15.6081 87.3741 14.8564 87.3741 13.7409 87.3741H9.34387C9.74801 87.6233 9.99858 88.4836 9.99858 89.2795V94.1113C9.99858 94.8107 9.74801 95.7192 9.34387 96.0167H12.4719C12.0678 95.7192 11.8172 94.8107 11.8172 94.1113V92.5516H13.1266C13.8379 92.5516 14.234 92.8491 14.5411 93.3556C14.9938 94.1113 15.3494 95.1645 15.8991 95.9684L18.4775 96.0167C17.6773 95.4137 17.3297 94.658 16.9256 93.8058ZM23.6424 96.2177C24.8549 96.2177 25.8652 95.8639 26.6169 95.2127C27.5222 94.457 28.185 93.2993 28.185 91.6994C28.185 90.0915 27.5222 88.9338 26.6169 88.1298C25.8571 87.5269 24.8468 87.1731 23.6424 87.1731C22.4785 87.1731 21.4681 87.5269 20.7084 88.1298C19.8031 88.9338 19.1403 90.0915 19.1403 91.6994C19.1403 93.3073 19.795 94.465 20.7084 95.2127C21.4681 95.8639 22.4785 96.2177 23.6424 96.2177ZM21.8238 93.9585C21.3227 93.5003 21.064 92.7526 21.064 91.6994C21.064 90.6462 21.3146 89.8905 21.8238 89.384C22.2764 88.9338 22.8826 88.6846 23.6909 88.6846C24.4507 88.6846 25.0569 88.9338 25.5096 89.384C26.0107 89.8905 26.2694 90.6382 26.2694 91.6994C26.2694 92.7526 26.0188 93.5083 25.5096 93.9585C25.0569 94.4087 24.4507 94.7062 23.6909 94.7062C22.8826 94.7062 22.2764 94.4087 21.8238 93.9585ZM34.9584 87.3741C35.1605 87.5269 35.2656 87.6796 35.209 87.8726C35.209 88.0736 35.1039 88.3791 34.9099 88.6765L33.1883 91.1366L31.4747 88.6283C31.2726 88.3308 31.0706 88.0253 31.1191 87.7761C31.1676 87.6233 31.2241 87.4786 31.4181 87.3741H27.9344C28.5406 87.6233 28.8397 88.0816 29.2923 88.7328L32.1294 92.6963V94.1032C32.1294 94.8027 31.8789 95.7112 31.4747 95.9604H34.6028C34.1986 95.7112 33.9481 94.8027 33.9481 94.1032V92.6963L36.5265 89.0785C36.9306 88.5801 37.4884 87.6716 38.0946 87.3661L34.9584 87.3741ZM51.7303 94.6097H49.5075V92.2461H52.8458L53.0478 90.9357H49.5156V88.781H51.4878C52.6033 88.781 53.5086 88.8293 53.9612 89.2795V87.3741H47.0423C47.4464 87.6796 47.697 88.5801 47.697 89.2795V94.1113C47.697 94.859 47.4464 95.7192 47.0423 96.0167H54.0178L54.3168 93.9023C53.7995 94.5615 52.8458 94.6097 51.7303 94.6097Z" fill="#1E2325"/>
</g>
<defs>
<clipPath id="clip0_7_87">
<rect width="64" height="104" fill="white"/>
</clipPath>
</defs>
</svg>
