<svg width="87" height="87" viewBox="0 0 87 87" fill="none" xmlns="http://www.w3.org/2000/svg">
<path d="M43.5 87C67.5244 87 87 67.5244 87 43.5C87 19.4756 67.5244 0 43.5 0C19.4756 0 0 19.4756 0 43.5C0 67.5244 19.4756 87 43.5 87Z" fill="#AAAAAA"/>
<path d="M9.38764 44.1034C7.83664 46.1063 6.91504 48.6192 6.91504 51.3485C6.91504 51.8205 6.94343 52.2855 6.99785 52.7433C7.40364 56.2014 9.29773 59.2052 12.0235 61.0934C12.0235 61.0934 20.0742 67.3719 43.5888 67.3719C67.1021 67.3719 74.9778 61.0934 74.9778 61.0934C77.6562 59.2371 79.5326 56.3055 79.9821 52.9231C80.0507 52.4085 80.0874 51.8832 80.0874 51.3497C80.0874 48.6203 79.1646 46.1075 77.6148 44.1046C77.6148 44.1046 58.4752 21.6891 53.9287 17.1367L53.9157 17.1237C51.2432 14.4559 47.5674 12.8043 43.5024 12.8043C39.4374 12.8043 35.7403 14.4559 33.0678 17.1237C33.0678 17.1237 33.0643 17.1272 33.056 17.1355C28.4823 21.6572 9.38764 44.1034 9.38764 44.1034Z" fill="#1E2325"/>
<path d="M73.7389 51.9518C73.3414 51.488 72.8658 51.1485 72.3109 50.9332C71.7561 50.7178 71.0439 50.5037 70.1731 50.2884C69.3355 50.0955 68.712 49.9003 68.3039 49.7028C67.8957 49.5052 67.6922 49.2023 67.6922 48.7942C67.6922 48.3872 67.8685 48.0583 68.2223 47.8099C68.576 47.5614 69.1226 47.436 69.862 47.436C70.9173 47.436 71.9726 47.7472 73.0278 48.3695L73.8442 46.2814C73.3224 45.9418 72.712 45.6815 72.0163 45.5005C71.3195 45.3195 70.6073 45.2296 69.8785 45.2296C68.8339 45.2296 67.9501 45.3941 67.2261 45.7218C66.5021 46.0507 65.9614 46.4943 65.6018 47.0539C65.2433 47.6135 65.0635 48.2393 65.0635 48.929C65.0635 49.7217 65.2622 50.3546 65.6597 50.8302C66.0572 51.3058 66.5328 51.6513 67.0877 51.8654C67.6425 52.0807 68.3548 52.296 69.2255 52.5102C69.791 52.6462 70.2394 52.7704 70.5718 52.884C70.9031 52.9976 71.1752 53.1467 71.3881 53.3336C71.5999 53.5205 71.7064 53.7559 71.7064 54.0375C71.7064 54.422 71.5265 54.7308 71.1681 54.9627C70.8096 55.1945 70.2536 55.3105 69.5035 55.3105C68.8292 55.3105 68.1548 55.1981 67.4793 54.9709C66.8049 54.745 66.2229 54.4445 65.7331 54.0718L65.4622 53.853L65.1569 56.3717C65.6207 56.6757 66.1898 56.9301 66.8676 57.1348C67.7112 57.3891 68.5843 57.5169 69.4869 57.5169C70.5316 57.5169 71.4177 57.3524 72.1477 57.0247C72.8764 56.697 73.423 56.2522 73.7874 55.6926C74.1518 55.133 74.3339 54.5131 74.3339 53.834C74.3339 53.0437 74.1352 52.4155 73.7389 51.9518Z" fill="#AAAAAA"/>
<path d="M30.5052 45.2024C27.1039 45.2024 24.3462 47.9601 24.3462 51.3614C24.3462 54.7627 27.1039 57.5204 30.5052 57.5204C33.9065 57.5204 36.6642 54.7627 36.6642 51.3614C36.6642 47.9601 33.9065 45.2024 30.5052 45.2024ZM30.5052 55.0608C28.4573 55.0608 26.7963 53.3998 26.7963 51.3519C26.7963 49.3041 28.4573 47.643 30.5052 47.643C32.5531 47.643 34.2141 49.3041 34.2141 51.3519C34.2141 53.3998 32.5531 55.0608 30.5052 55.0608Z" fill="#AAAAAA"/>
<path d="M59.418 45.4083V47.6597V52.2109C59.418 53.7205 58.1947 54.9438 56.6851 54.9438C55.1755 54.9438 53.9522 53.7205 53.9522 52.2109V47.6597V45.4899H51.3767V52.2109C51.3767 55.1425 53.7535 57.5193 56.6851 57.5193C59.6167 57.5193 61.9935 55.1425 61.9935 52.2109V45.4071H59.418V45.4083Z" fill="#AAAAAA"/>
<path d="M48.3516 45.4082H38.6623L38.3606 47.8962H42.2055V57.3382H44.7953V47.8962H48.6521L48.3516 45.4082Z" fill="#AAAAAA"/>
<path d="M23.0673 54.8337H16.6527V45.4082H14.063V57.3382H22.7644L23.0673 54.8337Z" fill="#AAAAAA"/>
<path d="M43.5025 38.3111C39.2163 38.3111 35.6458 35.2529 34.8508 31.1997L34.8555 31.195L35.9156 30.135H39.9569C40.2255 31.6008 41.3837 32.759 42.8483 33.0275V35.8645H45.8663C47.8077 35.8645 49.3859 34.2887 49.3859 32.3508C49.3859 31.169 48.8003 30.1219 47.9023 29.4843C48.7991 28.8454 49.3859 27.7972 49.3859 26.6153C49.3859 24.6739 47.8065 23.0957 45.8663 23.0957H42.6282C41.67 23.0957 40.7649 23.4637 40.0717 24.1392L34.684 29.5269C34.684 29.5174 34.684 29.5067 34.684 29.4973C34.684 24.6278 38.6307 20.6811 43.5002 20.6811C46.9878 20.6811 50.0023 22.7065 51.4314 25.6441H52.8546C51.3415 21.9624 47.719 19.3715 43.4931 19.3715C37.9043 19.3715 33.3743 23.9014 33.3743 29.4902C33.3743 29.9196 33.4016 30.3432 33.4536 30.7596L28.4043 35.8089H30.244L33.7659 32.2869C34.9798 36.5152 38.8744 39.6089 43.4931 39.6089C47.6977 39.6089 51.3025 37.0452 52.831 33.3955H51.4113C49.9739 36.3058 46.9725 38.3111 43.5025 38.3111ZM41.1979 29.4843C41.1979 28.4408 41.8959 27.5594 42.8483 27.2779V31.6907C41.8959 31.4091 41.1979 30.5265 41.1979 29.4843ZM48.0869 32.3508C48.0869 33.5706 47.0919 34.5632 45.8675 34.5632H44.1497V33.0264C45.1434 32.8442 45.9952 32.2538 46.5253 31.4351H44.714C44.5401 31.544 44.3508 31.6315 44.1485 31.6907V30.1338H45.8663C47.0908 30.1338 48.0869 31.1287 48.0869 32.3508ZM44.1497 27.2767C44.3508 27.337 44.5401 27.4234 44.7152 27.5322H46.5264C45.9964 26.7135 45.1446 26.1232 44.1508 25.941V24.3959H45.8687C47.0919 24.3959 48.0881 25.3909 48.0881 26.6153C48.0881 27.8386 47.0931 28.8348 45.8687 28.8348H44.1508V27.2767H44.1497ZM40.9873 25.0632C41.4298 24.6325 42.0119 24.3959 42.6294 24.3959H42.8495V25.9422C41.3837 26.2107 40.2266 27.369 39.9581 28.8348H37.2181L40.9873 25.0632Z" fill="#AAAAAA"/>
</svg>
