<svg width="86" height="99" viewBox="0 0 86 99" fill="none" xmlns="http://www.w3.org/2000/svg">
<path d="M42.4462 0.00022979C37.3449 0.0358335 32.25 0.373294 27.1883 1.01085L26.0702 1.16348L24.6809 1.35323C24.3808 1.39035 23.941 1.46048 23.7108 1.50998C23.43 1.56748 23.1477 1.617 22.8641 1.65848C22.5 1.71127 22.1369 1.7704 21.7748 1.83585L20.6856 2.03385C19.8922 2.1741 17.5493 2.6526 16.3655 2.92073C11.992 3.90248 7.13754 5.37098 5.14398 6.31973C3.7341 6.9921 1.97072 8.40698 1.32127 9.3846C0.725401 10.3665 0.324783 11.4549 0.141573 12.5897C0.02237 13.2415 0.010039 13.5385 0.00181807 16.0217C-0.0105132 19.0247 0.0388117 21.0666 0.182677 23.7148C0.86501 36.1682 3.04354 46.5673 7.11288 56.7148C9.83459 63.7794 13.4766 70.4512 17.9439 76.5561C22.0543 82.1785 26.658 87.1656 31.8988 91.6948C35.0598 94.4173 39.0387 97.4905 40.4321 98.2742C42.0187 99.1693 43.8027 99.2395 45.3235 98.4681C46.5567 97.837 51.0042 94.4503 54.0089 91.8516C58.6896 87.7637 62.9816 83.248 66.8294 78.3628C68.9257 75.7022 73.1636 69.0651 74.9557 65.6372C81.6229 52.891 85.4332 37.2448 85.8525 21.0377C85.9758 18.3895 86.0375 15.9887 85.9758 14.7306C85.9612 14.4165 85.9379 14.1029 85.9059 13.7901L85.91 12.1525L85.2318 10.7376C84.8559 9.90815 84.321 9.16107 83.6575 8.53898C82.8519 7.69335 82.1284 7.21485 80.439 6.3981C76.3409 4.4181 70.8288 2.85885 64.1699 1.78635C62.0531 1.42344 59.9256 1.1263 57.7905 0.895355L56.1299 0.697355C55.5696 0.631387 55.0076 0.580493 54.4446 0.54473C51.7251 0.314665 49.0004 0.149618 46.2731 0.0497298C44.9979 0.00676864 43.722 -0.00835993 42.4462 0.00435479V0.00022979ZM43.1327 3.42398C56.8615 3.3951 68.3215 5.22248 77.6563 8.91848C81.109 10.2797 81.7256 10.7046 82.4244 12.1855C82.9505 13.2992 82.9587 13.4642 82.8108 19.1609C82.001 50.4696 71.3015 73.6892 49.4628 91.5175C46.8156 93.6831 44.0534 95.6548 43.3629 95.8735C43.0217 95.9807 42.3969 95.7373 41.3775 95.1021C39.3552 93.844 34.3158 89.7272 30.937 86.5716C25.3797 81.3947 19.81 74.4565 16.0161 67.9843C7.91853 54.1903 3.71355 38.1028 3.21618 19.0371C3.07232 13.4684 3.08465 13.2951 3.61079 12.1814C4.30956 10.7087 4.93435 10.2756 8.25558 8.97623C17.4219 5.3751 27.102 3.71273 40.3581 3.45285C41.2953 3.43635 42.2202 3.42398 43.1327 3.42398ZM39.2648 6.34448L39.0798 6.35685C38.2577 6.45585 37.2383 7.2066 36.7492 8.0976C35.627 10.1395 35.8449 14.6646 37.1438 16.2404C37.6493 16.8591 37.9165 16.9664 38.8743 16.9664C39.5114 16.9664 40.2471 16.8014 40.5472 16.5827C40.8473 16.3682 41.3282 15.7289 41.6159 15.1596C42.3722 13.6746 42.3887 9.94148 41.6447 8.2791C41.1679 7.21898 40.2759 6.45173 39.4333 6.35685L39.3428 6.3486H39.2606L39.2648 6.34448ZM43.7616 6.59198L43.6917 11.6781C43.6618 13.3059 43.6481 14.934 43.6506 16.5621C43.6704 16.6469 43.6979 16.7298 43.7328 16.8096C43.8356 16.8302 44.0986 16.8467 44.4439 16.8467H45.192V14.6646C45.192 12.5774 45.2126 12.4907 45.7099 12.565C46.121 12.6269 46.3758 13.0847 46.9718 14.8049L47.7199 16.9664H49.5285L48.7311 14.6399L47.9378 12.3092L48.5872 11.6864C49.3805 10.9191 49.6272 9.80535 49.286 8.52248C48.912 7.0911 47.9624 6.5961 45.6236 6.59198H43.7616ZM53.528 6.83948C51.4522 6.83948 50.515 8.41935 50.5274 11.905C50.5274 14.2067 50.8726 15.6587 51.6125 16.4961C52.4675 17.4572 54.3254 17.6264 55.4969 16.8426C56.1299 16.4219 56.5327 15.1266 56.545 13.5096C56.545 13.0806 56.5286 12.7424 56.4711 12.5031C56.3354 12.1154 55.9367 12.0659 54.7981 11.9545L53.8322 11.8596C53.6636 11.9586 53.6513 12.1896 53.6513 12.7011V12.8661L53.6554 12.9404C53.6801 13.4271 53.7993 13.5096 54.2555 13.5096C54.7406 13.5096 54.8557 13.6334 54.8557 14.1449C54.8557 15.6092 53.7047 16.2569 52.8415 15.2834C51.6577 13.9469 51.9249 8.84835 53.1991 8.43585C53.7335 8.2626 54.6172 8.91023 54.6172 9.47123C54.6172 9.68573 54.9132 9.80123 55.4599 9.80123C56.4217 9.80123 56.5286 9.47535 55.9449 8.32448C55.7407 7.85943 55.3998 7.46804 54.9679 7.20267C54.5359 6.9373 54.0336 6.81058 53.528 6.83948ZM32.1578 6.99623C31.709 6.98373 31.2598 7.00302 30.8137 7.05398L29.3627 7.21073L29.2312 17.515L30.9904 17.3417C31.9564 17.2427 33.0046 17.0365 33.3293 16.8839C34.3199 16.3971 34.883 15.3741 34.9036 14.017C34.9159 13.0682 34.8008 12.6599 34.398 12.2474C33.8801 11.7194 33.8801 11.7111 34.3363 10.9439C34.6078 10.5174 34.7602 10.0256 34.7776 9.51983C34.7949 9.01407 34.6766 8.51292 34.435 8.06873C34.0938 7.39635 33.3539 7.0416 32.1578 6.99623ZM58.0001 7.30148V17.6552L58.8428 17.7542L59.6895 17.8574V15.5597C59.6895 13.0146 59.6114 13.1095 61.4447 13.4189L62.349 13.5756V15.8691C62.349 17.8491 62.4065 18.1832 62.7724 18.2822C63.8411 18.5669 63.8123 18.6947 63.7424 13.324L63.6767 8.1966L63.0149 8.11823L62.349 8.03985V12.0329L61.3214 11.8844C59.6361 11.6451 59.6895 11.7194 59.6895 9.5661C59.6895 8.14298 59.6073 7.57785 59.3895 7.57785C59.1028 7.55568 58.8191 7.50455 58.5427 7.42523L58.1481 7.31385L58.0001 7.30148ZM27.55 7.43348L26.7279 7.53248C25.9182 7.62735 25.8894 7.67273 25.2605 9.7641C24.9111 10.9397 24.4795 12.3464 24.3069 12.8909L23.9904 13.8809L23.2053 11.2862C22.7737 9.85898 22.3338 8.59673 22.227 8.48123C22.1242 8.36573 21.7008 8.3451 21.2898 8.43998L20.5417 8.60498V13.654C20.5417 18.4596 20.5622 18.6989 21.0062 18.6989C21.2712 18.6973 21.5345 18.6556 21.7872 18.5751C22.0256 18.4802 22.0913 17.9976 22.0338 16.7725C21.9903 15.8889 21.9903 15.0037 22.0338 14.1201C22.1078 13.2126 22.1818 13.3446 23.0532 15.9599L23.9945 18.7855L24.8659 15.6175L25.7373 12.4536L25.7743 13.9386C25.8365 14.1254 25.8408 14.3268 25.7866 14.5161L25.8072 15.2297C25.8647 17.614 25.9305 17.9811 26.247 17.8574C26.5172 17.7647 26.8 17.7146 27.0855 17.7089C27.5294 17.7089 27.55 17.4696 27.55 12.5691V7.43348ZM45.192 8.01098L46.2114 8.1471C47.6583 8.34923 48.2666 9.3681 47.5473 10.3787C47.2185 10.8325 45.6729 11.2037 45.3688 10.8944C45.2742 10.7954 45.192 10.1024 45.192 9.35985V8.01098ZM39.1825 8.1141C39.5237 8.1306 39.8525 8.40285 40.1156 8.9391C40.6582 10.0446 40.6171 13.9304 40.0498 14.8172C39.5032 15.6711 38.7962 15.6711 38.2495 14.8172C37.9371 14.3305 37.7973 13.5426 37.748 11.9174C37.6863 10.0034 37.748 9.56198 38.1796 8.86485C38.492 8.34923 38.8414 8.10173 39.1825 8.1141ZM30.9329 8.56785H31.7303C32.6963 8.56785 33.1073 8.9391 33.1073 9.82185C33.1073 10.6056 32.7785 10.915 31.718 11.1212L30.937 11.2739V9.92085L30.9329 8.56785ZM65.8593 8.58848C65.81 8.60961 65.7663 8.64212 65.7319 8.68335V18.9134L66.3978 19.0165C66.7636 19.0701 67.1418 19.1361 67.2445 19.1526C67.3432 19.1732 67.4254 16.921 67.4254 14.1407C67.4254 11.3646 67.3432 9.04635 67.2445 8.98448C66.9705 8.87192 66.6871 8.78359 66.3978 8.72048L65.8593 8.58848ZM16.6203 9.48773C16.4297 9.50321 16.241 9.53775 16.0572 9.59085C15.3173 9.7971 15.3091 9.8301 14.413 13.819C13.9198 16.03 13.3608 18.4802 13.1799 19.2722L12.8469 20.7077L13.6115 20.5427C13.9252 20.4827 14.2333 20.3957 14.5322 20.2829C14.6144 20.2333 14.7583 19.5816 14.8528 18.8309C15.0378 17.3046 15.0214 17.3294 16.2257 17.0984L17.1013 16.9292L17.389 18.175C17.6767 19.396 17.7014 19.4166 18.4495 19.2722C18.7453 19.2275 19.0349 19.1486 19.3127 19.0371C19.436 18.934 17.1424 9.74348 16.9409 9.5331C16.8998 9.49185 16.7806 9.47535 16.6203 9.48773ZM69.1148 9.56198V14.6192C69.1148 18.505 69.1847 19.6847 69.419 19.6889C69.5834 19.6889 69.9615 19.759 70.2575 19.8415C70.7836 19.9858 70.7918 19.9487 70.8617 16.9787L70.9275 13.9675L72.251 17.3376C72.9745 19.1939 73.739 20.8109 73.9404 20.9305C74.9023 21.508 74.9269 21.3677 74.8612 16.063L74.7954 10.948L74.1295 10.7706L73.4636 10.5891V13.3446C73.4554 16.5085 73.4307 16.4961 71.9839 12.7671C70.9234 10.0364 70.5822 9.55785 69.6738 9.55785L69.1148 9.56198ZM9.10233 11.7854C9.05301 11.7854 8.67074 11.9091 8.25147 12.0535L7.49104 12.3257V13.6045L7.56092 17.68C7.5938 19.6187 7.64313 21.1656 7.75 22.5557C7.79521 22.5722 7.84865 22.564 7.91442 22.5351C8.14871 22.4402 9.23387 22.0319 10.3314 21.6194C12.2057 20.9222 12.3249 20.8356 12.3249 20.1591C12.3249 19.7672 12.2879 19.4413 12.2427 19.4413C12.1975 19.4413 11.5275 19.6641 10.7547 19.9364C10.2641 20.1172 9.76788 20.2823 9.26675 20.4314C9.22154 20.4314 9.18454 18.4844 9.18454 16.1084C9.18454 13.7282 9.14344 11.7854 9.10233 11.7854ZM76.9328 11.7854C76.8876 11.7854 76.8506 14.1036 76.8506 16.9375V22.0896L77.6316 22.3453C78.0673 22.4897 78.4455 22.6135 78.4784 22.63C78.5113 22.6423 78.54 20.3323 78.54 17.4902V12.3216L77.7796 12.0494C77.5024 11.9447 77.2197 11.8552 76.9328 11.7812V11.7854ZM31.9317 12.6351C33.0128 12.6764 33.6869 13.8602 33.0785 14.9781C32.8196 15.4525 32.5031 15.634 31.8331 15.6917L30.9329 15.766V14.2975C30.9329 13.0146 30.9945 12.8125 31.4426 12.6929C31.6019 12.6494 31.7667 12.63 31.9317 12.6351ZM16.0983 12.6475L16.4189 13.9757C16.5957 14.7182 16.6532 15.0689 16.5874 15.2792C16.5856 15.3091 16.5773 15.3383 16.5631 15.3646C16.5489 15.391 16.5292 15.4139 16.5052 15.4319C16.4745 15.4635 16.44 15.4912 16.4025 15.5144C15.8229 15.8897 15.4242 15.7742 15.5804 15.2669C15.6626 15.0111 15.8106 14.3181 15.9092 13.7241L16.0983 12.6475ZM44.374 19.495C42.0927 19.5486 40.1238 20.1962 39.0058 21.3347C38.007 22.3536 37.896 23.4385 38.7263 23.9953C39.7744 24.6925 41.4926 24.9028 47.6377 25.1008C53.2608 25.2823 53.9349 25.3484 54.9132 25.831C56.1134 26.4291 56.6355 27.2046 56.5985 28.3472C56.5738 29.296 55.9531 30.3148 55.3941 30.3148C54.4528 30.3148 51.3289 29.5146 49.1216 28.7061C48.235 28.3657 47.3275 28.0833 46.4046 27.8605L46.2484 27.8481C45.6565 27.8646 44.9413 28.3472 42.8861 30.121C41.9818 30.9006 40.3787 31.9937 39.3223 32.5547C35.8942 34.3821 34.8378 35.83 34.361 39.3568C34.102 41.2667 33.7855 42.0298 32.3099 44.2532C31.085 46.1012 30.2218 48.5845 30.2136 50.2633C30.2136 51.076 29.9258 52.3712 29.4572 53.7242C28.8407 55.5103 28.7009 56.3106 28.6557 58.3525C28.6064 60.4727 28.5118 60.9925 27.9857 61.9783C27.6034 62.6878 27.3034 63.7521 27.1965 64.7586C27.0444 66.2436 26.9211 66.5158 25.8401 67.8111C25.1865 68.5866 24.6521 69.358 24.6521 69.523C24.6521 69.6137 24.5494 69.8117 24.3932 70.051C24.3603 70.2077 24.2863 70.3191 24.1918 70.3315C24.1074 70.4503 24.0169 70.5646 23.9205 70.6738C22.9997 71.7463 22.5476 72.9797 22.934 73.3716C23.1354 73.5778 23.2998 73.5118 23.5793 73.1076C24.1096 72.3321 24.4137 72.427 24.1712 73.2891C24.0315 73.7841 24.0561 74.0563 24.2493 74.143C24.611 74.3038 25.9839 74.0852 26.7032 73.7511C27.0814 73.5737 27.3609 73.12 27.5664 72.3486C27.7309 71.7175 28.035 70.9997 28.2406 70.7563C28.4666 70.4841 28.6557 69.6632 28.7174 68.6691C28.8078 67.2171 28.927 66.8912 29.745 65.8311C30.2793 65.1463 30.8425 64.0285 31.0644 63.2241C31.2823 62.4486 31.6276 61.4792 31.8372 61.0708C33.3868 58.0183 34.3857 56.2528 34.5624 56.2528C35.0968 56.2528 35.5243 57.4243 35.5243 58.8928C35.5243 60.0478 35.6229 60.4851 35.9106 60.6501C36.26 60.8481 36.2641 60.9512 35.9476 61.5906C35.7274 62.0541 35.5512 62.5375 35.4215 63.0343C35.1872 64.0243 34.4144 65.0845 33.6047 65.5093C33.2347 65.7073 32.4291 66.3673 31.8125 66.982C30.9247 67.8647 30.6904 68.2607 30.6945 68.9083C30.6986 69.9973 31.048 70.5666 31.4549 70.1458C31.9399 69.6508 32.1619 69.7952 31.9893 70.4965C31.8331 71.1317 31.8577 71.1482 32.6387 70.9915C33.6376 70.7852 34.5419 70.1953 34.7104 69.6426C34.7803 69.4116 34.9323 69.0568 35.0474 68.8547C35.1666 68.6485 35.6106 67.7245 36.0422 66.7922C36.5765 65.6372 37.1643 64.8205 37.9042 64.2017C38.4961 63.7067 39.1373 62.9106 39.3346 62.4362C39.906 61.042 41.5666 59.8457 41.5666 60.8357C41.5666 61.4132 40.6294 63.1622 39.9471 63.8593C39.088 64.738 38.4262 65.9177 38.4262 66.5695C38.4262 67.1428 38.7633 67.312 39.0305 66.8788C39.2935 66.4416 39.5936 66.6148 39.4621 67.1263C39.4499 67.1739 39.4403 67.2221 39.4333 67.2707C39.4744 67.3945 39.536 67.4976 39.6182 67.5801C39.721 67.609 39.8649 67.6213 40.0786 67.6213C41.32 67.6213 42.4914 66.9036 42.6682 66.0332C42.8059 65.4916 43.0161 64.9713 43.293 64.4863C43.5972 63.9748 43.704 63.4881 43.6054 63.0797C43.441 62.4156 43.8849 60.6996 44.2219 60.6996C44.4686 60.6996 45.3482 62.5435 45.5702 63.5458C45.692 64.0101 45.9105 64.4431 46.2114 64.8163C46.6553 65.3155 46.8485 65.3443 49.0188 65.2206C51.2672 65.0927 51.3741 65.0556 51.9578 64.3255C52.3935 63.7727 52.599 63.1498 52.6977 62.0691C52.8703 60.1633 53.6924 58.8681 55.575 57.5151L56.9808 56.5086L57.326 57.0613C57.5192 57.3625 57.9303 58.2535 58.2427 59.0372C58.7688 60.3407 58.7893 60.5552 58.5098 61.6772C58.3413 62.3537 58.2755 63.1375 58.3619 63.4221C58.4523 63.7108 58.3331 64.4781 58.0947 65.1546L57.9097 65.6826L57.8727 65.9136C57.8275 66.1193 57.8081 66.33 57.8152 66.5406L58.2385 66.9943C58.8839 67.7038 59.3319 67.7905 59.5374 67.2501C59.7183 66.7551 60.1746 66.7716 60.1746 67.2707C60.1746 67.7946 60.6473 67.6007 61.194 66.8582C61.6132 66.2807 61.6173 66.1776 61.2597 65.1422C61.046 64.5317 60.9268 63.8428 60.9843 63.6118C61.0419 63.3767 60.9843 62.7085 60.8528 62.1268C60.5519 60.6347 60.5673 59.0957 60.898 57.61C61.1323 56.4632 61.1035 56.2116 60.5568 55.0112C60.2239 54.2811 59.9978 53.6335 60.0513 53.5798C60.1088 53.5221 60.5651 53.6417 61.0706 53.8438C63.4136 54.7843 65.2427 54.5698 66.3567 53.2251L66.9239 52.5362C66.9329 52.4983 66.9384 52.4596 66.9404 52.4207L65.588 52.297C65.2792 52.2677 64.9709 52.2334 64.6632 52.1938C63.8452 52.0577 63.4876 51.7607 62.1805 50.5892C60.972 49.5085 60.9309 49.426 61.0583 48.4607C61.1364 47.8873 61.0172 46.6375 60.7829 45.5691C60.4048 43.8283 60.4048 43.5767 60.7582 42.3351C60.9679 41.5926 61.1405 40.6562 61.1405 40.2602C61.1405 39.064 60.4911 37.2242 59.7224 36.2466C59.2908 35.6718 58.9599 35.0273 58.7441 34.3408C58.5465 33.6748 58.2589 33.0392 57.8892 32.4516C57.3301 31.6101 57.3137 31.507 57.6466 30.6985C57.8799 29.9819 57.9992 29.233 58.0001 28.4792C58.0001 27.2953 57.8974 26.9984 57.215 26.2064C55.7353 24.4821 55.0365 24.3212 47.9666 24.1108C39.8073 23.8633 38.5249 23.5499 39.7909 22.1185C40.3088 21.5327 41.1556 21.5492 42.9148 22.1762C44.8426 22.861 47.1979 23.0301 48.5749 22.5846C49.7587 22.201 49.7793 22.2216 47.7281 21.7844C47.3993 21.7142 47.1239 21.5368 47.1239 21.3842C47.1239 21.3306 47.1568 21.2935 47.2102 21.2646C47.2472 21.1904 47.4199 21.1739 47.7446 21.211C47.8926 21.2192 48.0652 21.2357 48.2707 21.2646C51.4317 21.6936 51.9578 21.7266 51.9578 21.4832C51.9578 21.0831 49.8368 20.2581 47.6213 19.8002C46.5537 19.5764 45.4644 19.474 44.374 19.495ZM45.2496 21.5203C45.5762 21.5498 45.8971 21.6248 46.2032 21.7431L47.2472 22.1226L46.4991 22.135L46.4005 22.1391L46.2731 22.1308C45.9035 22.1404 45.5362 22.0701 45.1961 21.9246C44.7727 21.6482 44.8673 21.4997 45.2496 21.5203Z" fill="#AAAAAA"/>
</svg>
