<svg width="63" height="103" viewBox="0 0 63 103" fill="none" xmlns="http://www.w3.org/2000/svg">
<path d="M58.4478 0C60.154 0 61.5336 1.36494 61.5336 3.05303V95.5331C61.5336 97.2198 60.154 98.5862 58.4478 98.5862H3.18544C1.48084 98.5862 0.10083 97.22 0.10083 95.5331V3.05303C0.10083 1.36494 1.48084 0 3.18544 0H58.4478Z" fill="#AAAAAA"/>
<path d="M1.30017 13.7092H60.3743V95.3482C60.3743 96.0272 60.2584 96.4469 59.8005 96.9023C59.3035 97.3963 58.8675 97.4406 58.0805 97.4406L3.06399 97.446C2.63048 97.446 2.29799 97.3078 1.93913 97.0044C1.49468 96.6234 1.30017 96.1487 1.30017 95.6463V13.7092Z" fill="#1E2325"/>
<path d="M60.3743 9.60205H1.30017V13.7963H60.3743V9.60205Z" fill="#AAAAAA"/>
<path d="M60.3743 5.39929H1.30017V9.59369H60.3743V5.39929Z" fill="#1E2325"/>
<path d="M2.97014 1.13318H58.6658C59.5578 1.13318 60.3803 1.99302 60.3803 2.83222V5.5097H1.30017L1.30555 3.15502V2.95908C1.30555 2.0097 2.0371 1.22702 2.97014 1.13318Z" fill="#AAAAAA"/>
<path d="M58.4478 0C60.154 0 61.5336 1.36494 61.5336 3.05303V95.5331C61.5336 97.2198 60.154 98.5862 58.4478 98.5862H3.18544C1.48084 98.5862 0.10083 97.22 0.10083 95.5331V3.05303C0.10083 1.36494 1.48084 0 3.18544 0H58.4478ZM58.4478 1.2187H3.18544C2.16125 1.2187 1.33335 2.04122 1.33335 3.05303V95.5331C1.33335 96.5462 2.16143 97.3632 3.18544 97.3632H58.4478C59.4721 97.3632 60.3 96.5462 60.3 95.5331V3.05303C60.3 2.0414 59.4721 1.2187 58.4478 1.2187Z" fill="#AAAAAA"/>
<path d="M29.7304 18.8906C29.7304 18.8906 29.6931 19.2466 29.6118 19.4551C29.5318 19.6482 29.3233 19.7781 29.3371 19.9076C29.3509 20.0347 29.4862 20.1879 29.6959 20.294C29.9016 20.4016 29.9843 20.4845 30.1955 20.5383C30.3914 20.5868 30.6399 20.7302 30.7103 20.566C30.7808 20.3989 30.6746 20.196 30.5558 20.0015C30.3487 19.662 30.2439 19.5791 29.9389 19.1126C29.8739 19.0121 29.823 18.9043 29.7304 18.8906Z" fill="#AAAAAA"/>
<path d="M28.1832 55.5688C28.2038 55.508 28.6924 55.8174 28.9463 55.9665C29.4804 56.2866 29.7205 56.477 30.1926 56.8303C30.5667 57.1147 30.7474 57.2609 31.123 57.5839C31.5837 57.9813 31.8323 58.3208 31.9566 58.2436C32.136 58.0283 31.6627 57.3989 31.2443 57.0569C30.8373 56.7199 30.4164 56.4468 30.092 56.2342C29.6737 55.9552 29.6364 55.8918 29.0112 55.4721C28.3391 55.0223 27.7595 54.4566 27.7595 54.4566L27.1066 53.9432L26.084 53.0805L24.9467 52.033L24.0883 51.0764C24.0883 51.0764 23.4203 50.2595 23.3141 50.1019C23.2064 49.946 22.8917 49.4407 22.6324 49.0131C22.4004 48.6293 21.9506 48.0333 21.9091 47.9821C21.6662 47.688 21.1114 47.8068 20.4667 47.4273C19.6842 46.9649 19.4951 46.5425 19.4951 46.5425C19.4951 46.5425 19.466 46.4806 19.4357 46.4474C19.4066 46.4128 19.3474 46.3701 19.3474 46.3701L18.9374 46.0844L18.7027 45.9298C18.7027 45.9298 18.5247 45.7821 18.3011 45.6868C18.0761 45.5874 17.5751 45.2962 17.5751 45.2962L16.6794 44.7249C16.6794 44.7249 16.3288 44.4434 16.2129 44.3495C16.0943 44.2598 15.8734 44.1315 15.8734 44.1315C15.8734 44.1315 15.7326 44.061 15.6899 44.0583C15.6471 44.0554 15.4609 44.0389 15.4609 44.0389C15.4609 44.0389 15.2883 43.9933 15.113 44.1992C14.9377 44.4062 14.9806 44.2957 15.2662 45.4606C15.3793 45.9186 15.3683 47.535 15.4898 48.0275C15.6443 48.6596 16.0887 49.4768 16.1343 49.5733C16.1786 49.6686 16.2102 50.0219 16.2102 50.0219C16.2102 50.0219 16.191 50.3077 16.2213 50.4886C16.3566 51.3235 17.578 50.7741 17.8473 51.9197C18.1124 53.0502 17.6885 54.1777 17.6885 54.1777C17.6885 54.1777 17.4262 54.7383 17.055 54.8264C16.6852 54.9121 16.111 54.0923 15.6956 53.4284C15.2858 52.7755 14.9504 51.9197 14.8428 51.6479C14.7351 51.3759 14.6784 51.3165 14.5542 51.1193C14.3707 50.8252 14.223 50.8792 14.0174 50.4154C13.8103 49.9517 13.9939 49.7653 13.9015 49.361C13.8476 49.1375 13.7994 49.1125 13.729 48.7922C13.6614 48.4736 13.5702 47.4591 13.5702 47.4591L13.4405 46.5151C13.4405 46.5151 13.3949 46.0844 13.3357 45.8139C13.1301 44.8699 13.0583 43.9562 13.0583 43.9562L13.0197 43.5808L13.0059 43.1931C13.0059 43.1931 12.9935 43.0066 13.0391 42.8148C13.0847 42.6232 13.1773 42.4644 13.1773 42.4644C13.1773 42.4644 13.3678 42.1455 13.4008 42.0655C13.4326 41.9896 13.8218 41.5369 13.8218 41.5369C13.8218 41.5369 14.026 41.3672 14.3586 41.1642C14.6928 40.9613 14.9922 40.9751 14.9922 40.9751C14.9922 40.9751 15.0805 40.9669 15.6714 41.0401C16.2621 41.1131 17.4766 41.4361 17.7831 41.5148C18.0853 41.5965 18.447 41.7233 18.6815 41.8543C19.3564 42.2215 19.5607 42.0657 19.0239 41.6448C18.6621 41.3618 18.5602 41.2348 18.2688 40.9699C18.023 40.7435 17.8299 40.5929 17.6464 40.3846C17.4628 40.172 16.9398 39.4006 16.9398 39.4006L16.6127 38.9176C16.6127 38.9176 16.4374 38.7189 16.4083 38.7049C16.3808 38.6884 16.2924 38.6208 16.2924 38.6208C16.2924 38.6208 16.0758 38.6317 15.8521 38.589C15.6258 38.5435 15.5208 38.8611 15.5208 38.8611C15.5208 38.8611 15.0349 39.7677 14.541 40.3227C13.7405 41.2238 13.1663 41.8367 12.8724 42.3169C12.4597 42.9822 12.5509 43.7111 12.3382 44.0477C12.2141 44.2451 12.1464 44.2742 12.0788 44.4466C11.8717 44.9698 12.6239 45.2567 12.4515 45.8363C12.1768 46.7557 10.0238 47.6651 9.73792 47.5133C9.44114 47.3573 9.68409 46.1139 9.78349 45.7121C9.88559 45.3079 10.1878 44.7116 10.2156 44.6813C10.2418 44.6522 10.315 44.5114 10.3369 44.3928C10.3604 44.2742 10.3686 44.005 10.3824 43.8559C10.3963 43.7054 10.4583 43.4681 10.4583 43.4681C10.4583 43.4681 10.4666 43.417 10.657 43.0045C10.8488 42.5891 11.55 41.6229 12.0524 40.7009C12.3836 40.0991 12.5216 39.7349 12.8529 39.1316C13.1579 38.5783 13.6809 37.7335 13.6809 37.7335C13.6809 37.7335 13.9016 37.3029 14.0052 37.1428C14.1101 36.9785 14.3308 36.668 14.5379 36.3616C14.7464 36.0565 14.7974 35.8274 15.0692 35.5762C15.2942 35.3664 15.4474 35.2546 15.7413 35.1608C16.1788 35.0158 16.4785 35.0933 16.9256 35.2175C17.3893 35.3444 17.7081 35.557 18.0119 35.8082C18.314 36.0623 18.5391 36.3424 18.5391 36.3424L18.6867 36.5604L18.7777 36.6142L19.0594 36.7951L19.7039 37.2214C19.7039 37.2214 21.2332 38.2621 21.3188 38.3186C21.4003 38.3725 21.6748 38.5975 21.7286 38.6154C21.7853 38.6319 22.1925 38.1902 22.9917 37.6397C23.9163 36.9978 24.2434 37.0461 24.55 36.8792C24.8522 36.7122 24.9763 36.5742 25.2139 36.3368C25.5728 35.9779 25.5755 35.7861 25.9826 35.2852C26.3926 34.7856 26.7762 34.5053 26.7762 34.5053C26.7762 34.5053 26.8328 34.4488 27.563 33.6234C28.2917 32.8009 28.6147 32.1783 28.6147 32.1783L29.015 31.3764C29.015 31.3764 29.5946 30.1303 29.781 29.6374C29.9687 29.1434 29.9687 28.979 29.9687 28.979C29.9687 28.979 29.9961 28.8493 29.8555 28.5981C29.7105 28.3481 29.5614 28.4614 29.284 28.5181C28.7527 28.6313 28.4297 28.4931 27.8928 28.3995C27.4016 28.3178 27.1448 28.1703 26.6521 28.0889C26.1525 28.0047 25.8613 27.922 25.3602 27.9703C25.2843 27.9785 25.1312 28.0103 25.0578 28.035C24.7748 28.1289 24.6963 28.1509 24.4865 28.2724C24.2435 28.3856 24.0835 28.4215 23.8143 28.4283C23.6279 28.4339 23.5149 28.4395 23.3424 28.3718C23.2237 28.3262 23.156 28.2918 23.0622 28.2076C23.0057 28.1565 22.9753 28.1233 22.9324 28.0571C22.9271 28.0047 22.9104 28.0074 22.9615 27.922C23.0112 27.835 23.0733 27.8197 23.0733 27.8197L23.3024 27.7632C23.3024 27.7632 23.6254 27.679 23.6557 27.6706C23.6848 27.6623 23.9925 27.5629 24.1276 27.5202C24.2644 27.4775 24.4135 27.3988 24.4135 27.3988C24.4135 27.3988 24.4962 27.2663 24.4644 27.1904C24.4244 27.1047 24.2409 27.0966 24.2409 27.0966C24.2409 27.0966 23.9841 27.1904 23.9552 27.1987C23.9276 27.2043 23.5176 27.3338 23.5176 27.3338C23.5176 27.3338 23.196 27.4043 22.9463 27.4635C22.6951 27.5201 22.3362 27.5491 22.3362 27.5491L22.2285 27.5201C22.2285 27.5201 22.1071 27.4386 22.0879 27.3532C22.0699 27.2773 22.0588 27.2206 22.045 27.1337C21.9911 26.8161 21.9264 26.6243 22.0023 26.3112C22.0313 26.1801 22.0617 26.1069 22.1182 25.9856C22.1664 25.8847 22.1982 25.8268 22.2603 25.7315L22.4578 25.4085L22.8305 24.8578C22.9588 24.7281 23.0432 24.6633 23.2045 24.5722C23.4418 24.4398 23.5798 24.4024 23.8766 24.3692C24.1678 24.3375 24.2078 24.3403 24.6205 24.2478C25.0359 24.1539 25.33 23.9897 25.33 23.9897C25.33 23.9897 26.3224 23.6253 26.9268 23.3285C27.5602 23.0181 27.8363 22.6867 28.492 22.4301C28.7694 22.3225 28.9308 22.2713 29.2165 22.1983C29.2524 22.1748 29.2703 22.1527 29.2815 22.1098C29.3091 22.0063 29.149 21.958 29.0385 21.969C28.9391 21.9772 28.7128 22.0822 28.6617 21.969C28.6229 21.8821 28.8686 21.831 28.8686 21.831C28.8686 21.831 28.9845 21.7772 28.9874 21.7124C28.9902 21.613 28.8205 21.6778 28.7444 21.6695C28.3594 21.6266 28.329 21.5563 28.0626 21.4915C27.7493 21.4129 27.5797 21.3162 27.2539 21.3024C26.9668 21.2913 26.6976 21.3521 26.517 21.3948C26.339 21.4404 26.3334 21.2651 26.4037 21.2306C26.9076 20.9959 26.9185 20.9765 27.2747 20.96C27.4692 20.9518 27.7412 20.9932 27.7715 21.0083C27.8006 21.0248 28.1898 21.0056 28.2892 20.9035C28.3913 20.8041 27.9703 20.8097 27.7715 20.7309C27.5882 20.6579 27.3079 20.6372 27.3134 20.5156C27.3231 20.3941 27.4584 20.4617 27.555 20.437C27.6763 20.4079 27.7468 20.4108 27.8709 20.3943C28.0947 20.364 28.1139 20.3431 28.4451 20.3157C28.7722 20.2839 29.2443 20.4233 29.2443 20.4233C29.2443 20.4233 29.7397 20.643 29.9827 20.7589C30.2256 20.8719 30.5195 20.9313 30.5195 20.9313C30.5195 20.9313 30.8644 20.9796 31.1269 20.8154C31.3932 20.6525 31.2428 20.5448 31.1502 20.3945C31.0591 20.2536 30.9434 20.0494 31.1129 19.6629C31.2635 19.3261 31.3421 18.9328 31.3849 18.8969C31.4389 18.8542 31.6473 19.1564 31.7824 19.2807C32.2668 19.7334 32.9074 19.957 33.5119 20.9037C33.5589 20.9796 33.7825 20.8581 34.4835 20.9658C35.1846 21.0734 35.7975 21.8242 35.9522 22.0038C36.1124 22.1845 36.3193 22.1748 36.3193 22.1748L36.6561 22.2204L37.8788 22.241C37.8788 22.241 38.4337 22.1416 38.7538 22.2632C38.9774 22.3474 39.7228 22.8457 39.3833 23.0346C39.1459 23.1672 38.9223 22.876 38.707 22.8622C38.4529 22.8457 38.3426 22.8939 38.1161 22.9505C37.6414 23.0693 36.6229 23.377 36.9927 23.5011C37.0202 23.5121 37.0727 23.5203 37.0727 23.5203L37.2549 23.5521C37.2549 23.5521 37.7022 23.6542 37.9726 23.7604C38.381 23.9219 38.5744 24.1001 38.9498 24.3208C39.1649 24.445 39.2589 24.5693 39.4935 24.6396C39.7088 24.7019 39.8468 24.6396 40.0676 24.677C40.3574 24.7281 40.5202 24.7875 40.7854 24.9143C41.1799 25.1035 41.3235 25.3326 41.677 25.5865C41.8535 25.7148 42.0025 25.7342 42.1351 25.9068C42.1656 25.9454 42.1905 25.9662 42.2043 26.0116C42.2513 26.1689 41.9447 26.0764 41.7819 26.0503C41.6025 26.02 41.528 25.9315 41.3624 25.8556C41.1168 25.7397 41.0007 25.6127 40.733 25.5644C40.5397 25.5271 40.4238 25.5562 40.2252 25.5671C40.0319 25.5754 39.9298 25.6044 39.7364 25.6071C39.4081 25.6127 39.2231 25.5838 38.9001 25.516C38.5383 25.4403 38.3589 25.2994 38.0002 25.2248C37.5944 25.1406 36.8768 24.7929 36.9457 25.1406C36.9816 25.3077 37.3625 25.4483 37.3625 25.4483C37.3625 25.4483 37.6247 25.5892 37.8732 25.6995C38.1217 25.8072 38.2595 25.9716 38.2595 25.9716L38.4307 26.0986C38.4307 26.0986 38.6073 26.3416 38.8393 26.6161C39.0655 26.8867 39.4685 26.8782 39.4685 26.8782C39.4685 26.8782 39.7115 26.8782 40.2358 26.9859C40.7576 27.0935 41.2959 27.4163 41.2959 27.4163C41.2959 27.4163 41.7015 27.6952 41.9389 27.9755C42.1736 28.2557 42.0383 28.3964 42.008 28.4253C41.9806 28.4556 41.9913 28.4418 41.9583 28.4556C41.9309 28.4694 41.6382 28.1023 41.6382 28.1023L41.4285 27.9243C41.4285 27.9243 41.2241 27.7808 40.9592 27.6952C40.6942 27.611 40.6058 27.6676 40.6058 27.6676C40.6058 27.6676 40.0427 27.8249 39.5514 27.8111C39.0655 27.7973 38.8116 27.6026 38.8116 27.6026L38.5025 27.3955C38.5025 27.3955 38.0386 26.9608 38.0219 27.1666C38.0108 27.306 38.2263 27.4605 38.2263 27.4605C38.2263 27.4605 38.3754 27.6109 38.4748 27.7063C38.6625 27.8911 38.74 27.9837 38.9552 28.1753C39.1705 28.3688 39.3029 28.3688 39.3029 28.3688C39.3029 28.3688 39.4188 28.3962 39.463 28.4047C39.5073 28.4129 39.5846 28.4337 39.5846 28.4337C39.5846 28.4337 39.6564 28.4614 39.993 28.5981C40.3269 28.7332 40.6887 29.0273 40.6887 29.0273C40.6887 29.0273 40.7219 29.0549 40.7716 29.0646C40.8211 29.0702 40.9205 29.1199 40.9481 29.1281C40.9784 29.1349 41.064 29.1349 41.2573 29.1626C41.4534 29.1916 41.3788 29.3158 41.3788 29.3158L41.3456 29.3626L41.1853 29.4703C41.1853 29.4703 40.9784 29.5297 40.8376 29.5365C40.694 29.5448 40.4898 29.4649 40.4898 29.4649L40.0563 29.302C40.0563 29.302 39.6176 29.1861 39.5236 29.1708C39.4298 29.157 39.0379 29.0784 38.9717 29.0646C38.9082 29.0495 38.7122 28.979 38.6598 28.9487C38.6072 28.9198 38.5107 28.9004 38.2733 28.7845C38.0386 28.6686 37.9448 28.5347 37.6523 28.4422C37.357 28.3483 37.1775 28.3291 36.9567 28.4824C36.5757 28.7445 37.5307 28.7874 38.0056 29.0246C38.7068 29.3696 39.1014 29.6235 39.267 29.9964C39.4353 30.3703 39.6038 30.5056 39.6038 30.5056C39.6038 30.5056 40.098 30.7541 40.3187 31.0149C40.4401 31.1555 40.4568 31.2716 40.5781 31.4123C40.8485 31.7297 41.3732 31.7118 41.4782 31.9809C41.5776 32.2319 41.0529 32.1189 40.7796 32.094C40.2883 32.0457 40.1696 31.5957 39.7113 31.415C39.452 31.3115 39.2864 31.3115 39.0212 31.2205C38.5382 31.0617 38.3119 30.8534 37.8287 30.703C37.536 30.6133 37.006 30.2282 37.0724 30.5248C37.0833 30.5966 37.1275 30.6519 37.1467 30.6947C37.1716 30.7375 37.2931 30.8948 37.2931 30.8948C37.2931 30.8948 37.4558 31.1101 37.5303 31.1668C37.5994 31.2262 37.9112 31.4607 38.3584 31.7037C38.8001 31.9466 39.1865 32.4132 39.1865 32.4132C39.1865 32.4132 39.3191 32.6037 39.3826 32.7363C39.4488 32.8854 39.4018 32.9308 39.5067 33.1379C39.6033 33.3435 39.6503 33.3835 39.7827 33.5106C40.1084 33.8239 40.4507 33.7616 40.8647 33.9315C40.9779 33.9798 40.9862 33.9963 41.1076 34.126C41.2291 34.2543 41.0854 34.3094 41.0854 34.3094C41.0854 34.3094 40.6246 34.4282 40.3264 34.4032C39.9401 34.3729 39.766 34.2541 39.3906 34.0665C39.0097 33.8802 38.8111 33.5448 38.7725 33.5242C38.7393 33.502 38.6455 33.4027 38.5737 33.3516C38.5021 33.3006 38.3169 33.2619 38.1513 33.2163C37.983 33.1709 37.889 33.1625 37.7209 33.1169C37.4917 33.0519 37.2542 32.9513 37.1465 32.9168C37.0388 32.8795 36.7932 32.8354 36.6138 32.9416C36.2549 33.1542 37.1713 33.2976 37.4557 33.6028C37.6019 33.756 37.6625 33.8637 37.8007 34.0252C37.9057 34.1493 37.9498 34.2364 38.0797 34.3329C38.1678 34.3977 38.3307 34.468 38.3307 34.468C38.3307 34.468 38.5514 34.5703 38.8744 34.7483C39.1974 34.9263 39.5755 35.43 39.5755 35.43L39.8046 35.7806L39.9399 35.9806L39.9758 36.0732L40.0253 36.1863C40.0253 36.1863 40.1911 36.4016 40.3124 36.4719C40.434 36.5451 40.4118 36.6086 40.4118 36.6086C40.4118 36.6086 40.3982 36.653 40.3124 36.7012C40.2297 36.7524 40.1827 36.7095 40.0614 36.6736C39.9399 36.6391 39.8599 36.5232 39.7551 36.4389C39.6445 36.3506 39.5286 36.1367 39.3327 36.0153C39.1588 35.9105 38.9326 35.8732 38.8441 35.8455C38.7585 35.8139 38.5432 35.6786 38.4576 35.6413C38.3749 35.6081 38.1513 35.506 38.1513 35.506C38.1513 35.506 37.7209 35.266 37.4831 35.2012C37.2459 35.1348 37.3975 35.2798 37.3975 35.2798C37.3975 35.2798 37.6103 35.611 37.8143 35.7434C38.0795 35.9187 38.452 36.0734 38.3306 36.2153C38.2477 36.3079 38.1373 36.2747 38.0158 36.2609C37.8172 36.2376 37.577 36 37.577 36C37.577 36 37.4777 35.9352 37.0333 35.7944C36.5915 35.6494 36.7544 35.8924 36.8565 36.0235C36.9561 36.1506 37.0914 36.2236 37.0914 36.2236L37.3923 36.3589L37.5303 36.4016C37.5303 36.4016 37.652 36.4236 38.0521 36.5175C38.4522 36.6086 38.6733 36.8033 38.6733 36.8033C38.6733 36.8033 38.8884 37.0034 39.1865 37.2243C39.4901 37.4478 39.7883 37.5045 39.9539 37.5266C40.1195 37.5473 40.1139 37.6632 40.1139 37.6632C40.1139 37.6632 40.136 37.7696 40.1252 37.804C40.1197 37.8399 40.0838 37.869 40.0477 37.869C40.0145 37.869 39.9982 37.8828 39.9541 37.9063C39.9099 37.9284 39.7387 37.956 39.7387 37.956C39.7387 37.956 39.2916 37.9422 38.9383 37.8552C38.5906 37.7696 38.2812 37.5266 38.248 37.513C38.2206 37.4992 37.8947 37.3185 37.6685 37.2467C37.4505 37.1735 37.0998 37.2053 37.0611 37.2191C37.0254 37.2329 36.9037 37.2523 36.6968 37.3129C36.4871 37.3682 36.7492 37.448 36.7492 37.448L36.8983 37.4618L37.2543 37.4895C37.2543 37.4895 37.6243 37.5322 37.9362 37.6481C38.248 37.7613 38.4524 37.9904 38.6595 38.2002C38.8663 38.4058 39.0957 38.5411 39.0957 38.5411L39.2613 38.6488L39.3469 38.7136L39.3689 38.7701C39.3689 38.7701 39.3607 38.7991 39.3469 38.8349C39.333 38.8722 39.2807 38.8996 39.2807 38.8996C39.2807 38.8996 39.2033 38.8858 39.1703 38.8858C39.1315 38.8858 38.897 38.7616 38.7232 38.6857C38.5437 38.6072 38.4526 38.5325 38.2593 38.4855C38.0937 38.4455 37.873 38.4275 37.8231 38.4428C37.7736 38.4566 37.409 38.5078 37.1275 38.527C36.8461 38.549 36.603 38.5531 36.2718 38.5131C35.7999 38.4566 35.1733 38.0838 35.0931 38.1875C34.9303 38.4055 35.4272 38.4676 35.6701 38.607C36.0014 38.7988 36.5755 38.9714 36.5755 38.9714C36.5755 38.9714 36.9951 39.0638 37.2407 39.1797C37.779 39.4297 37.9419 39.7995 38.3752 40.1887C38.6126 40.4067 38.8059 40.5005 39.126 40.5475C39.4021 40.5877 39.3966 40.5545 39.8326 40.4689C40.2715 40.3821 40.5367 39.9665 40.6635 40.1185C40.6885 40.1476 40.6774 40.175 40.6718 40.2179C40.6635 40.2606 40.6278 40.3394 40.6278 40.3394C40.6278 40.3394 40.5781 40.4097 40.5008 40.4898C40.4208 40.5683 40.1199 40.7327 39.9625 40.7975C39.8051 40.8624 39.4188 40.9701 38.9329 40.9548C38.447 40.941 37.7627 40.5683 37.7627 40.5683L37.2714 40.3613C37.2714 40.3613 37.0449 40.2551 36.8904 40.1971C36.4819 40.0424 36.2224 40.0562 35.8027 39.9459C35.5433 39.8756 35.3723 39.8024 35.1376 39.7541C34.9002 39.7031 35.0355 39.797 35.0575 39.83C35.1679 39.9803 35.3168 40.0286 35.5047 40.1156C35.7532 40.2371 35.9271 40.2124 36.181 40.32C36.4654 40.4347 36.7139 40.5962 36.8712 40.6983C37.0257 40.7977 37.1418 40.9109 37.2936 41.0682L37.8152 41.5154C37.8152 41.5154 37.9367 41.6148 37.9505 41.6562C37.9642 41.6991 38.0221 41.8066 37.9947 41.9792C37.9642 42.1518 37.8235 42.0304 37.8235 42.0304L37.6855 41.9421L37.5473 41.815L37.3292 41.6343C37.3292 41.6343 37.1417 41.4644 36.8185 41.3002C36.4984 41.1332 36.1119 41.0917 36.1119 41.0917C36.1119 41.0917 35.7695 41.0408 35.7807 41.1485C35.7972 41.2547 35.8741 41.2644 36.1447 41.3347C36.418 41.4052 36.5974 41.5432 36.5974 41.5432C36.5974 41.5432 36.8764 41.7503 37.0778 41.9792C37.2764 42.2085 37.3345 42.4307 37.3345 42.4307C37.3345 42.4307 37.4366 42.6184 37.6934 42.8667C37.9502 43.1179 38.0855 43.0309 38.0715 43.1525C38.0576 43.274 37.9444 43.2961 37.9444 43.2961C37.9444 43.2961 37.8782 43.2903 37.8508 43.2903C37.8231 43.2903 37.7569 43.2532 37.6851 43.2255C37.6134 43.1979 37.3428 43.0102 37.3428 43.0102C37.3428 43.0102 36.9179 42.6654 36.8709 42.6322C36.8183 42.5948 36.4182 42.2954 36.4182 42.2954C36.4182 42.2954 36.1808 42.1436 36.0123 42.058C35.8384 41.9738 35.6093 41.8856 35.4796 41.8427C35.3527 41.8012 35.1151 41.7874 35.1151 41.7874C35.1151 41.7874 34.8309 41.7447 34.6571 41.6797C34.3838 41.5748 34.0662 41.2836 34.0305 41.2697C33.9917 41.2547 33.7378 41.1677 33.6881 41.1759C33.6386 41.1815 33.5225 41.6618 33.4951 41.9392C33.3791 43.1014 33.6881 43.8728 34.1685 44.9384C34.8612 46.4869 36.7907 48.4122 36.7907 48.4122C36.7907 48.4122 37.2766 48.6869 37.481 48.8511C38.0578 49.3025 39.0129 49.9415 39.8604 50.7861C40.5835 51.5106 41.5444 52.7956 41.5444 52.7956C41.5444 52.7956 42.1017 53.5712 42.3613 54.1205C42.676 54.7941 42.9301 55.8211 42.9301 55.8211C42.9301 55.8211 42.9522 55.9977 42.9687 56.0365C42.9908 56.0722 43.0403 56.1192 43.0737 56.1192L43.4103 56.1303C43.4435 56.1303 43.8271 56.1028 44.0812 56.0391C44.3324 55.9756 44.9286 55.7023 45.3261 55.4955C45.718 55.2855 46.19 54.8881 46.19 54.8881C46.19 54.8881 46.281 54.8107 46.7395 54.2974C47.2033 53.784 47.5013 53.0139 47.6144 52.7227C47.7249 52.4344 47.8161 51.8781 47.8823 50.9284C47.9539 49.9749 47.8243 48.9699 47.8243 48.9699C47.8243 48.9699 47.6504 47.5676 47.5453 47.09C47.4405 46.6154 47.1866 45.8368 47.1866 45.8368C47.1866 45.8368 47.01 45.1442 46.9548 44.7068C46.8966 44.2691 46.8886 43.557 46.8886 43.557C46.8886 43.557 46.8886 43.1209 47.0291 42.3149C47.1755 41.5131 47.6669 40.7042 47.6669 40.7042C47.6669 40.7042 47.8049 40.4322 48.3351 39.7973C48.8788 39.1472 49.0525 39.0451 49.5881 38.6572C50.0134 38.3522 50.5624 37.8609 50.7422 37.9768C50.9409 38.101 50.5486 38.3495 50.4162 38.4792C50.0823 38.8105 49.4586 39.3956 48.9533 40.2775C48.5117 41.0408 48.3461 41.5459 48.2359 42.0442C48.1252 42.5412 48.1724 43.0876 48.1862 43.274C48.2029 43.4604 48.3048 43.3928 48.3048 43.3928C48.3048 43.3928 49.3785 42.5301 49.961 41.8773C50.5931 41.1707 51.1562 39.9132 51.3769 39.9023C51.526 39.8926 51.5951 40.2294 51.5592 40.3853C51.4214 41.0381 51.3745 41.1196 51.1616 41.5529C50.9188 42.0497 50.6927 42.2706 50.3557 42.7289C50.0023 43.2092 49.8286 43.3928 49.5443 44.0289C49.1333 44.944 49.3732 45.6508 49.3732 45.6508C49.3732 45.6508 49.4229 46.08 49.6159 46.0744C49.9393 46.0633 50.6484 45.1675 51.1122 44.4346C51.4548 43.8977 51.5787 43.2767 51.8025 42.9508C52.0067 42.6625 52.1863 43.4202 52.0978 43.8674C51.9956 44.3987 51.7334 44.8763 51.1565 45.6285C50.5935 46.3626 50.61 47.0611 50.61 47.0611C50.61 47.0611 50.552 47.3799 50.505 48.0756C50.4611 48.7682 50.6597 49.8202 50.6597 49.8202C50.6597 49.8202 50.8361 50.6993 50.8723 51.3658C50.9055 52.0366 50.8833 53.559 50.2565 54.7445C50.0082 55.2193 49.4753 55.8764 49.4753 55.8764C49.4753 55.8764 49.064 56.2988 48.7272 56.5442C48.3902 56.7901 47.5815 57.1739 47.5815 57.1739C47.5815 57.1739 47.0214 57.3669 46.944 57.3836C46.8611 57.4057 46.8116 57.4746 46.8116 57.4746C46.8116 57.4746 46.8611 57.5824 46.8832 57.6266C46.9024 57.6709 47.0597 58.057 47.0597 58.057C47.0597 58.057 47.2281 58.6036 47.2916 59.0371C47.3551 59.4704 47.2804 59.5698 47.22 59.9011C47.1592 60.2187 47.0213 60.0721 46.9853 60.6959C46.955 61.2482 47.2035 61.524 47.1592 62.1425C47.1401 62.4131 46.8335 61.8003 46.6844 61.5409C46.3696 60.9775 46.4441 60.1108 46.4387 59.8957C46.4303 59.6804 46.4136 59.4428 46.3338 59.1724C46.2372 58.8189 46.0908 58.5458 45.9281 58.3305C45.7623 58.1179 45.5884 57.9966 45.5304 58.0186C45.4725 58.038 45.4669 58.1511 45.4669 58.2063C45.4641 58.2671 45.58 58.4713 45.6049 58.5157C45.6352 58.5569 45.8423 58.9352 45.8423 58.9352C45.8423 58.9352 45.9333 59.2278 45.9692 59.7966C46.0052 60.3597 45.8312 61.0607 45.8312 61.0607C45.8312 61.0607 45.6047 61.8475 45.3675 62.3114C45.1021 62.8218 44.5145 63.5175 44.5145 63.5175C44.5145 63.5175 44.0921 63.904 43.7745 64.5388C43.4629 65.1737 43.7306 65.4498 43.6145 65.5325C43.493 65.6125 43.2445 65.1654 43.1783 64.8645C43.1148 64.583 43.1451 64.4504 43.2612 64.1356C43.3688 63.8321 43.6229 63.393 43.6229 63.393L44.001 62.7499C44.001 62.7499 44.4592 61.8777 44.6028 61.2427C44.7463 60.6134 44.5807 59.9124 44.5807 59.9124C44.5807 59.9124 44.5615 59.6805 44.4042 59.6915C44.2439 59.6997 44.1338 59.8379 44.0674 60.0062C43.9375 60.3539 44.1226 60.2906 43.9236 60.8702C43.7693 61.3256 43.725 61.2649 43.6421 61.5353C43.5427 61.8583 43.4903 62.1895 43.4961 62.3912C43.5043 62.5898 43.394 62.5071 43.394 62.5071C43.394 62.5071 43.2007 62.1481 43.2007 61.7011C43.2007 61.4582 43.2118 61.3202 43.2395 61.077C43.2836 60.6879 43.4437 60.0918 43.4437 60.0918C43.4437 60.0918 43.6148 59.5038 43.5789 58.9682C43.5379 58.4272 43.35 58.328 43.35 58.328C43.35 58.328 43.3005 58.2562 43.0905 58.2671C42.8836 58.2838 42.8946 58.6563 42.8946 58.6563C42.8946 58.6563 42.8311 59.1892 42.7484 59.5203C42.5192 60.434 42.2129 60.9143 41.6718 61.6844C41.1805 62.3801 40.5153 62.993 40.181 63.2801C39.8498 63.5728 38.8285 64.3153 38.8285 64.3153L37.6306 65.1128C37.6306 65.1128 37.1558 65.5767 36.9403 66.1288C36.7196 66.6782 36.7306 67.1087 36.8574 67.6138C36.9846 68.1217 37.1668 68.3536 37.2633 68.4969C37.3571 68.6353 37.5423 68.8834 37.603 69.1762C37.6415 69.3555 37.6141 69.4632 37.625 69.6453C37.6363 69.8055 37.6582 69.8938 37.6527 70.0567C37.6471 70.3106 37.6939 70.4899 37.5477 70.6969C37.4427 70.8543 37.1556 70.9923 37.1556 70.9923C37.1556 70.9923 36.8302 71.1356 36.6365 71.2544C34.5993 72.4828 33.8763 73.2806 32.728 74.6496C32.3636 75.0885 32.6315 75.0611 32.2423 75.58C32.0061 75.8893 31.461 75.8893 31.2636 76.259C30.9891 76.7641 31.882 77.2611 30.8509 77.7055C29.5219 78.2797 27.2349 77.8683 27.1893 77.689C27.0651 77.1976 27.6364 76.6291 27.8394 76.4027C28.7695 75.3867 29.6005 75.3618 29.9055 74.5201C29.9717 74.3407 29.9455 74.1862 30.6866 73.6367C31.2069 73.2529 33.2855 71.6879 34.1938 70.6445C34.5056 70.2857 34.7733 70.0485 34.9086 69.6618C35.0468 69.2696 34.7733 69.0241 34.7733 69.0241L34.4006 68.4167L33.6858 67.1386C33.6858 67.1386 33.3851 66.4597 33.2221 66.0676C33.0538 65.6755 32.7418 64.621 32.7418 64.621C32.7418 64.621 32.5128 63.6716 32.4739 63.0531C32.405 61.9435 32.5568 61.2978 32.8496 60.2212C33.2277 58.8245 34.0861 58.2392 34.4285 56.8534C34.528 56.4506 34.5499 55.7603 34.3456 55.7935C34.1523 55.8294 34.1358 56.3731 33.9869 56.7377C33.4348 58.1123 32.7059 58.7141 32.3058 60.1383C32.0381 61.1016 31.9277 61.6733 31.9302 62.6724C31.9333 63.2437 31.911 63.1389 32.0573 64.1299C32.1152 64.4942 32.2035 64.6901 32.3113 65.0461C32.3885 65.3002 32.5956 65.7749 32.5956 65.7749C32.5956 65.7749 32.88 66.4015 32.9794 66.8404C33.0095 66.9924 33.0485 67.0776 33.0371 67.2296C33.0179 67.4917 33.0648 67.5472 32.9379 67.7844C32.7806 68.0799 32.8769 68.2538 32.3747 68.364C31.9275 68.4578 31.0139 68.1598 31.0139 68.1598C31.0139 68.1598 27.2584 67.0225 24.861 67.3509C24.3862 67.4144 24.1309 67.5883 23.6534 67.58C23.2186 67.5745 22.9978 67.2348 22.563 67.3647C22.4747 67.3896 22.4471 67.453 22.3671 67.5056C21.7322 67.9471 22.2179 68.6814 20.5453 68.3004C19.5184 68.0657 18.2749 67.4367 18.4901 67.0417C18.7784 66.5172 19.1649 66.4317 19.9767 66.0976C20.8448 65.7443 22.1476 65.8437 22.4044 65.8272C22.7177 65.8022 23.1677 65.5842 23.7279 65.5704C24.6968 65.5537 24.8692 65.6698 24.8692 65.6698L26.5143 65.8158L29.6626 65.8548C29.6626 65.8548 30.2256 65.8133 30.4492 65.769C30.6756 65.7247 30.8536 65.2804 30.9776 65.0678C31.0993 64.8582 30.9722 64.5489 30.9722 64.5489L30.8786 64.4026L30.5789 63.9196L30.0256 62.9866L29.4114 61.761C29.4114 61.761 29.0098 60.9082 28.7959 60.3478C28.5833 59.7902 28.4591 59.4754 28.3183 58.8988C28.1706 58.305 28.0794 57.8248 28.0602 57.3474C28.0369 56.662 27.9913 56.1292 28.1832 55.5688Z" fill="#AAAAAA"/>
<path d="M48.6208 54.4316C49.2831 53.5814 49.347 52.7917 49.3854 51.6794C49.4157 50.8707 49.1096 49.6244 49.1096 49.6244L49.068 49.5332C49.068 49.5332 48.9521 49.3827 48.8806 49.5815C48.8916 49.757 48.9138 49.8977 48.9138 49.8977L48.9522 51.5029C48.9522 51.5029 48.9025 52.3116 48.6267 53.1452C48.1629 54.553 46.9318 55.1796 46.7526 55.6876C46.4456 56.5293 47.8286 55.4556 48.6208 54.4316Z" fill="#1E2325"/>
<path d="M41.6759 57.0293C41.6759 57.0293 41.4053 57.1066 41.3998 57.3742C41.3944 57.642 41.466 57.8739 41.4577 58.1968C41.4523 58.6083 41.0741 59.0829 41.3171 59.2376C41.7339 59.5026 42.0926 57.6365 41.9657 57.3605C41.8387 57.0842 41.7145 57.0262 41.6759 57.0293Z" fill="#1E2325"/>
<path d="M36.9999 69.9669C36.9999 69.9669 36.9224 69.9256 36.7708 69.9836C36.6219 70.0413 36.6326 70.1962 36.6326 70.1962C36.6326 70.1962 36.6023 70.3618 36.7238 70.3785C36.8454 70.4006 37.0441 70.1024 37.0441 70.0692C37.0441 70.036 36.9999 69.9669 36.9999 69.9669Z" fill="#1E2325"/>
<path d="M32.5999 73.0943C32.5999 73.0943 32.5556 73.1386 32.5944 73.1687C32.6357 73.2048 32.6938 73.1605 32.6938 73.1605C32.6938 73.1605 33.4528 72.5671 33.9028 72.1503C34.3776 71.7031 35.0623 70.933 35.0623 70.933C35.0623 70.933 35.1091 70.8751 35.0567 70.8254C35.0013 70.7757 34.8717 70.8528 34.7641 70.9025C34.6702 70.9522 34.615 71.0046 34.5434 71.0628C34.4772 71.1236 34.2507 71.3554 34.2507 71.3554L33.6654 71.924L33.2954 72.2718L32.9367 72.6139L32.7876 72.7853C32.7876 72.7853 32.7489 72.8515 32.7381 72.868C32.7268 72.8872 32.6884 72.9369 32.6884 72.9369C32.6884 72.9369 32.633 72.9895 32.633 73.006C32.633 73.0198 32.6165 73.0336 32.6165 73.0503C32.6109 73.0722 32.5999 73.0943 32.5999 73.0943Z" fill="#1E2325"/>
<path d="M31.2874 73.9557C31.2874 73.9557 31.2059 73.8895 31.0776 73.9528C30.9479 74.0219 30.8099 74.1983 30.7986 74.2179C30.7864 74.2428 30.7159 74.3366 30.7644 74.4194C30.8126 74.5023 30.9768 74.3806 31.0016 74.3752C31.0251 74.3752 31.2391 74.2042 31.2391 74.2042C31.2391 74.2042 31.3633 74.1267 31.2874 73.9557Z" fill="#1E2325"/>
<path d="M28.774 76.5006C28.774 76.5006 28.6663 76.3019 28.5255 76.3847C28.3846 76.4676 28.3075 76.4952 28.1777 76.6744C28.1557 76.7048 28.0163 76.8844 27.9913 76.9312C27.9666 76.9755 27.8271 77.2405 28.1101 77.2597C28.596 77.2872 28.277 76.9755 28.444 76.8539C28.5793 76.7602 28.8332 76.785 28.8361 76.6856C28.8388 76.5863 28.774 76.5006 28.774 76.5006Z" fill="#1E2325"/>
<path d="M20.1617 66.3313C20.1617 66.3313 19.8705 66.4033 19.8484 66.5027C19.8249 66.6075 20.0182 66.7069 20.0485 66.7123C20.0829 66.7178 20.1479 66.7952 20.3424 66.6626C20.5342 66.533 20.5259 66.4225 20.5259 66.4225C20.5259 66.4225 20.6392 66.2901 20.1617 66.3313Z" fill="#1E2325"/>
<path d="M24.8984 66.1768C24.8984 66.1768 24.8956 66.0692 24.6899 66.0832C24.4802 66.0943 24.436 66.1327 24.4305 66.1659C24.4237 66.1962 24.4416 66.2488 24.6279 66.2653C24.817 66.2764 24.8929 66.2651 24.8984 66.1768Z" fill="#1E2325"/>
<path d="M29.3772 66.3065C29.0003 66.3036 29.1191 66.315 28.8873 66.3259C28.4664 66.348 28.2372 66.3313 27.8218 66.3036C27.2392 66.2651 26.3381 66.1215 26.3381 66.1215C26.3381 66.1215 26.2249 66.0941 26.1793 66.1685C26.1379 66.2374 26.2897 66.3975 26.425 66.4391C27.1633 66.6682 27.2033 66.6297 27.7057 66.6377C27.986 66.6406 28.1419 66.6128 28.4208 66.5963C28.7741 66.569 28.9383 66.6239 29.3233 66.5218C29.424 66.4969 29.5207 66.3094 29.3772 66.3065Z" fill="#1E2325"/>
<path d="M31.9001 65.5585C31.9001 65.5585 31.8242 65.4704 31.6681 65.5475C31.5138 65.622 31.4198 65.7903 31.4198 65.7903C31.4198 65.7903 31.3468 65.9062 31.5027 65.8899C31.6545 65.8678 31.791 65.8016 31.8269 65.7795C31.8669 65.7571 31.9802 65.6523 31.9001 65.5585Z" fill="#1E2325"/>
<path d="M29.7042 35.2759C29.7042 35.2759 30.7697 34.2781 31.5328 32.9587C31.9853 32.1719 32.1827 30.3404 31.7937 30.7958C31.6182 31.0043 31.4058 31.9539 31.069 32.6576C30.5886 33.6596 29.5632 35.0785 29.5632 35.0785C29.5632 35.0785 29.3427 35.5506 29.7042 35.2759Z" fill="#1E2325"/>
<path d="M25.4451 37.8115C25.4451 37.8115 25.3319 37.8997 25.383 38.0406C25.4368 38.1841 25.6536 38.0765 25.6536 38.0765C25.6536 38.0765 26.1463 37.8902 26.6625 37.8709C27.18 37.8488 27.8978 38.0033 27.8978 38.0033C27.8978 38.0033 28.2399 38.0971 28.2966 38.1192C28.3532 38.1427 28.5396 38.2324 28.5713 38.2434C28.599 38.2557 28.777 38.3428 28.8764 38.253C28.9758 38.1619 28.2539 37.5064 27.517 37.407C26.2899 37.24 25.484 37.7686 25.484 37.7686L25.4451 37.8115Z" fill="#1E2325"/>
<path d="M20.3909 42.1328C20.4777 42.2075 20.8877 41.4262 21.2299 40.9321C21.4811 40.5705 21.9395 39.966 21.9395 39.966C21.9395 39.966 22.1464 39.6886 21.796 39.8433C21.6539 39.9068 21.2647 40.2034 20.99 40.7487C20.758 41.2124 20.2997 42.0596 20.3909 42.1328Z" fill="#1E2325"/>
<path d="M17.556 38.7388C17.556 38.7388 17.4675 39.0412 17.821 39.4192C18.177 39.7989 18.2681 40.112 18.4946 39.8858C18.5567 39.8237 18.2737 39.313 18.1302 39.1709C17.9825 39.03 17.8775 38.9141 17.8775 38.9141L17.7851 38.8382L17.6663 38.772L17.5987 38.7446C17.5987 38.7446 17.5807 38.7279 17.556 38.7388Z" fill="#1E2325"/>
<path d="M16.4074 35.8405C16.4074 35.8405 16.0238 35.9122 15.9299 36.0985C15.8346 36.2849 16.3715 36.1717 16.3715 36.1717C16.3715 36.1717 16.7275 36.1909 16.7359 36.0558C16.7442 35.9178 16.6905 35.904 16.4074 35.8405Z" fill="#1E2325"/>
<path d="M10.3112 45.9434C10.1153 45.8868 10.0822 46.2721 10.0559 46.3961C10.0338 46.5202 10.1443 46.7687 10.1897 46.7687C10.2339 46.7659 10.3898 46.5231 10.398 46.4045C10.4065 46.283 10.4838 45.9974 10.3112 45.9434Z" fill="#1E2325"/>
<path d="M16.6423 53.4682C16.6423 53.4682 16.2917 53.1906 16.2379 53.3012C16.1855 53.4115 16.5264 53.8987 16.5264 53.8987C16.5264 53.8987 16.6312 54.0589 16.7927 53.9869C16.9513 53.9098 16.8948 53.733 16.8948 53.733C16.8948 53.733 16.7871 53.5068 16.6423 53.4682Z" fill="#1E2325"/>
<path d="M13.9993 45.3306C13.9993 45.3306 13.9096 45.3073 13.8778 45.4148C13.8446 45.5224 13.8475 45.6977 13.824 45.9102C13.8048 46.076 13.8669 46.5176 13.8669 46.5176C13.8669 46.5176 13.9013 46.8682 13.9717 47.0767C14.0476 47.3056 14.2491 47.6315 14.2491 47.6315C14.2491 47.6315 14.325 47.7985 14.4188 47.7903C14.5112 47.7806 14.4892 47.6715 14.4892 47.6715C14.4892 47.6715 14.1952 46.5068 14.187 46.388C14.1524 46.0003 14.1524 45.5282 14.1524 45.5282L14.1497 45.4577C14.1497 45.4577 14.1468 45.3333 13.9993 45.3306Z" fill="#1E2325"/>
<path d="M14.4574 41.7768C14.4574 41.7768 14.2959 41.7465 14.1469 42.0569C13.9966 42.3716 14.0283 42.4987 14.042 42.5125C14.0531 42.5263 14.1717 42.5236 14.3623 42.2324C14.5514 41.9439 14.5085 41.8333 14.5085 41.8333C14.5085 41.8333 14.4974 41.7768 14.4574 41.7768Z" fill="#1E2325"/>
<path d="M18.8989 44.9967C18.8989 44.9967 19.0934 45.2878 18.7209 45.2203C18.3469 45.1527 17.5616 44.5329 17.2413 44.366C16.9251 44.199 16.4048 44.1464 16.623 43.9507C16.663 43.9175 16.6739 43.8855 16.736 43.883C16.801 43.8801 17.0163 43.9643 17.0299 43.974C17.041 43.9794 17.5944 44.2085 17.615 44.2141C17.6344 44.2223 17.945 44.3549 18.1657 44.4845C18.3866 44.6154 18.7453 44.8667 18.7453 44.8667L18.8989 44.9967Z" fill="#1E2325"/>
<path d="M29.2516 53.9099C29.3537 54.23 28.0729 53.2334 27.3869 52.7048C25.5693 51.3052 23.3443 48.4359 23.6217 48.182C23.8509 47.9735 24.7631 49.2875 26.1006 50.7352C27.5305 52.2783 29.1922 53.7193 29.2516 53.9099Z" fill="#1E2325"/>
<path d="M34.5982 52.5378C34.2008 52.9614 34.0601 53.504 34.2891 53.9097C34.5126 54.3043 34.5817 53.3327 34.8302 53.047C35.0455 52.7971 35.178 52.8373 35.5313 52.5861C36.1331 52.1624 35.1008 51.9982 34.5982 52.5378Z" fill="#1E2325"/>
<path d="M32.3237 43.4813C32.0505 43.4371 32.0587 43.8525 32.0973 44.1466C32.2796 45.4631 32.8705 46.4776 33.6596 47.4327C34.1401 48.0152 35.4568 49.053 35.6084 48.8861C35.6639 48.8267 34.3553 47.8151 33.5216 46.5151C32.9309 45.5932 32.6162 44.8134 32.5418 44.0528C32.5337 43.9561 32.5556 43.5186 32.3237 43.4813Z" fill="#1E2325"/>
<path d="M27.2253 23.9667C26.6318 24.2883 25.6022 24.5714 25.6022 24.5714C25.6022 24.5714 25.5552 24.6735 25.6878 24.6626C26.5699 24.592 26.9065 24.4817 27.3759 24.2746C27.8451 24.0719 28.186 23.5086 28.186 23.5086C28.186 23.5086 28.3766 23.158 28.0233 23.4465C27.9128 23.5348 27.551 23.7887 27.2253 23.9667Z" fill="#1E2325"/>
<path d="M34.3857 21.7049C34.3857 21.7049 34.1842 21.6606 34.0489 21.7449C33.9137 21.8305 33.9522 21.8981 33.9522 21.8981C33.9522 21.8981 34.1622 22.0582 34.3111 22.0846C34.4602 22.1066 34.7803 22.246 34.7695 22.1384C34.7555 22.028 34.5763 21.8307 34.5126 21.7768C34.4548 21.7199 34.3857 21.7049 34.3857 21.7049Z" fill="#1E2325"/>
<path d="M31.0156 27.8881C31.0498 27.9584 31.6516 27.7943 31.8837 27.6644C32.0645 27.5623 32.1361 27.2199 32.1361 27.2199C32.1361 27.2199 32.1858 26.8887 32.1087 27.017C31.7649 27.5789 30.9822 27.8161 31.0156 27.8881Z" fill="#1E2325"/>
<path d="M30.9962 26.3435C31.2391 25.877 30.3294 26.828 29.8657 27.0736C29.5828 27.2227 29.1218 27.4214 29.1218 27.4214C29.1218 27.4214 29.0003 27.5732 29.1701 27.5594C29.3398 27.5482 29.7719 27.6947 30.1225 27.4241C30.2054 27.3579 30.5696 26.8278 30.5696 26.8278C30.5696 26.8278 30.8801 26.5642 30.9962 26.3435Z" fill="#1E2325"/>
<path d="M30.8553 28.3282C30.8745 28.4041 31.8944 28.3791 32.1499 28.302C32.3514 28.2467 32.4618 27.8907 32.4618 27.8907C32.4618 27.8907 32.5832 27.5788 32.4783 27.6836C32.016 28.1557 30.8375 28.2523 30.8553 28.3282Z" fill="#1E2325"/>
<path d="M14.4739 37.6706C14.4739 37.6706 14.3194 37.6141 14.1276 37.9024C13.937 38.1895 13.0786 39.4938 13.2304 39.6856C13.4111 39.9119 14.155 38.5208 14.3817 38.2613C14.6106 37.9977 14.5168 37.7327 14.5168 37.7327C14.5168 37.7327 14.5141 37.6733 14.4739 37.6706Z" fill="#1E2325"/>
<path d="M33.1739 61.1864C33.08 61.6197 33.1904 62.5059 33.3397 62.6796C33.7039 63.1185 33.4803 61.9924 33.5327 61.5974C33.5769 61.2305 33.621 61.1035 33.8033 60.7114C34.129 60.0048 33.3646 60.2643 33.1739 61.1864Z" fill="#1E2325"/>
<path d="M30.0409 23.4977C30.0409 23.4977 29.7581 23.5059 29.5372 23.6274C29.3136 23.7489 29.2584 23.9215 29.2584 23.9215C29.2584 23.9215 29.2128 24.0456 29.2433 24.1133C29.3081 24.261 29.6145 24.0374 29.8284 24.1104C30.0009 24.1725 30.0838 24.2236 30.2162 24.3823C30.3321 24.5204 30.535 24.7191 30.6621 24.6058C30.7931 24.4955 30.745 24.2125 30.745 24.2125C30.745 24.2125 30.5944 23.7516 30.3972 23.6218C30.1982 23.4894 30.0409 23.4977 30.0409 23.4977Z" fill="#1E2325"/>
<path d="M25.34 26.7398C25.34 26.7398 25.1812 26.7645 25.2186 26.9578C25.2559 27.1469 25.3594 27.1178 25.3594 27.1178C25.3594 27.1178 25.688 26.977 25.6686 26.7798C25.6451 26.581 25.34 26.7398 25.34 26.7398Z" fill="#1E2325"/>
<path d="M23.0448 25.7101C23.0448 25.7101 22.8724 25.7171 22.7509 25.9308C22.6323 26.1434 22.5618 26.3643 22.5618 26.3643C22.5618 26.3643 22.5053 26.6431 22.6045 26.7314C22.7054 26.8182 22.8157 26.5507 22.9605 26.4457C23.0473 26.3837 23.1014 26.356 23.1911 26.2925C23.314 26.2082 23.5141 26.3158 23.5002 26.0675C23.4825 25.8175 23.2175 25.6989 23.0448 25.7101Z" fill="#1E2325"/>
<path d="M30.4619 23.0393C30.4619 23.0393 30.0714 22.9828 30.0865 23.1332C30.1003 23.2739 30.2979 23.1897 30.4247 23.2464C30.5489 23.3029 30.6318 23.325 30.731 23.4161C30.8042 23.4809 30.7958 23.608 30.8857 23.6107C31.0098 23.6135 30.9851 23.5624 30.9851 23.5624C30.9851 23.5624 30.8719 23.2256 30.7244 23.1305C30.578 23.0338 30.4619 23.0393 30.4619 23.0393Z" fill="#1E2325"/>
<path d="M34.8191 24.6141C34.7639 24.8267 34.7307 24.8997 34.7307 24.8997C34.7307 24.8997 34.6205 25.3318 35.0565 25.173C35.4927 25.0128 35.2663 25.0804 35.5808 24.9274C35.8902 24.7756 35.8846 24.8597 36.111 24.8709C36.1882 24.8735 36.2379 24.8762 36.354 24.8543C36.4532 24.8321 36.4118 24.7162 36.1911 24.6568C35.9539 24.5947 35.6639 24.6085 35.3273 24.6057C35.1285 24.6031 34.8771 24.4016 34.8191 24.6141Z" fill="#1E2325"/>
<path d="M35.0124 23.0174C35.0124 23.0174 34.8136 22.9718 34.6756 23.0574C34.5403 23.1415 34.5818 23.2092 34.5818 23.2092C34.5818 23.2092 34.7889 23.3735 34.9407 23.3956C35.0898 23.4218 35.4099 23.5598 35.3989 23.4494C35.3822 23.3418 35.2057 23.1417 35.1422 23.0879C35.0788 23.0339 35.0124 23.0174 35.0124 23.0174Z" fill="#1E2325"/>
<path d="M35.78 26.0167C35.78 26.0167 35.5672 25.9738 35.421 26.0552C35.2774 26.1353 35.316 26.2002 35.316 26.2002C35.316 26.2002 35.5424 26.3522 35.7025 26.3755C35.8627 26.3976 36.2049 26.5273 36.1911 26.4238C36.1774 26.3217 35.984 26.1326 35.9205 26.0816C35.857 26.0303 35.78 26.0167 35.78 26.0167Z" fill="#1E2325"/>
<path d="M35.8462 27.1039C35.8462 27.1039 35.6195 27.0529 35.465 27.1468C35.3105 27.2392 35.3572 27.3138 35.3572 27.3138C35.3572 27.3138 35.5921 27.4918 35.7633 27.5168C35.9316 27.543 36.296 27.6921 36.2793 27.5733C36.2657 27.4547 36.0613 27.2394 35.9895 27.1814C35.9233 27.1204 35.8462 27.1039 35.8462 27.1039Z" fill="#1E2325"/>
<path d="M35.9481 28.164C35.9481 28.164 35.7025 28.1075 35.5367 28.2123C35.3684 28.3171 35.4208 28.4014 35.4208 28.4014C35.4208 28.4014 35.6747 28.6 35.857 28.6305C36.042 28.6596 36.4366 28.8292 36.4202 28.6953C36.4035 28.5629 36.1827 28.3171 36.1055 28.2523C36.0337 28.1832 35.9481 28.164 35.9481 28.164Z" fill="#1E2325"/>
<path d="M35.926 29.4752C35.926 29.4752 35.6803 29.4228 35.5145 29.5263C35.3462 29.6284 35.3932 29.7126 35.3932 29.7126C35.3932 29.7126 35.6525 29.9112 35.8348 29.9417C36.0171 29.9708 36.4117 30.1405 36.3952 30.0079C36.376 29.874 36.1578 29.6284 36.0833 29.5635C36.006 29.496 35.926 29.4752 35.926 29.4752Z" fill="#1E2325"/>
<path d="M35.7466 32.0313C35.7466 32.0313 35.4981 31.9774 35.3325 32.0824C35.1669 32.1859 35.2166 32.2688 35.2166 32.2688C35.2166 32.2688 35.4705 32.4689 35.6528 32.498C35.8378 32.5256 36.2325 32.698 36.216 32.5627C36.1993 32.4303 35.9788 32.1859 35.9013 32.1183C35.8267 32.0506 35.7466 32.0313 35.7466 32.0313Z" fill="#1E2325"/>
<path d="M35.9124 30.7532C35.9124 30.7532 35.6307 30.6885 35.4319 30.8098C35.2413 30.9284 35.2995 31.0251 35.2995 31.0251C35.2995 31.0251 35.5948 31.2569 35.8073 31.2901C36.0172 31.3246 36.4755 31.5192 36.4588 31.3674C36.4367 31.2115 36.1827 30.9285 36.0945 30.8526C36.0061 30.7753 35.9124 30.7532 35.9124 30.7532Z" fill="#1E2325"/>
<path d="M35.6252 33.188C35.6252 33.188 35.4208 33.1396 35.283 33.2266C35.1448 33.3122 35.1891 33.3798 35.1891 33.3798C35.1891 33.3798 35.3989 33.5469 35.548 33.5689C35.6998 33.5939 36.0228 33.7331 36.0117 33.6228C35.9952 33.5122 35.8157 33.3122 35.7524 33.2583C35.6916 33.2018 35.6252 33.188 35.6252 33.188Z" fill="#1E2325"/>
<path d="M35.4319 34.2947C35.4319 34.2947 35.2663 34.2588 35.1504 34.3293C35.0402 34.3996 35.0731 34.4561 35.0731 34.4561C35.0731 34.4561 35.2469 34.5914 35.3713 34.6121C35.4953 34.6314 35.7687 34.7502 35.7576 34.6564C35.7465 34.5667 35.592 34.3996 35.5423 34.354C35.4899 34.3085 35.4319 34.2947 35.4319 34.2947Z" fill="#1E2325"/>
<path d="M35.1946 35.3049C35.1946 35.3049 35.0455 35.2705 34.9405 35.3353C34.8411 35.3973 34.8688 35.4512 34.8688 35.4512C34.8688 35.4512 35.0261 35.5726 35.1393 35.5893C35.2526 35.61 35.4953 35.7135 35.4846 35.632C35.4761 35.5506 35.3408 35.3973 35.2938 35.3573C35.2468 35.3161 35.1946 35.3049 35.1946 35.3049Z" fill="#1E2325"/>
<path d="M34.9571 36.1332C34.9571 36.1332 34.8026 36.0985 34.7034 36.1606C34.5982 36.2256 34.6287 36.2765 34.6287 36.2765C34.6287 36.2765 34.7861 36.4007 34.8993 36.4174C35.0126 36.4353 35.2553 36.5416 35.2444 36.4576C35.2361 36.3761 35.1008 36.2258 35.0511 36.1856C35.0068 36.1443 34.9571 36.1332 34.9571 36.1332Z" fill="#1E2325"/>
<path d="M34.6675 37.0938C34.6675 37.0938 34.546 37.0647 34.4604 37.1159C34.3775 37.1697 34.4052 37.2097 34.4052 37.2097C34.4052 37.2097 34.532 37.3093 34.6232 37.3258C34.7143 37.3394 34.913 37.4252 34.9022 37.3559C34.8938 37.2912 34.7834 37.1697 34.7475 37.1352C34.7088 37.1021 34.6675 37.0938 34.6675 37.0938Z" fill="#1E2325"/>
<path d="M34.3225 37.9922C34.3225 37.9922 34.2175 37.9673 34.1458 38.0114C34.0742 38.057 34.0962 38.0942 34.0962 38.0942C34.0962 38.0942 34.2066 38.1783 34.2839 38.1894C34.3612 38.2047 34.5322 38.2779 34.524 38.2185C34.5186 38.162 34.4219 38.057 34.3916 38.0294C34.3553 38.0005 34.3225 37.9922 34.3225 37.9922Z" fill="#1E2325"/>
<path d="M33.9663 38.8466C33.9663 38.8466 33.8584 38.8231 33.7869 38.8687C33.7176 38.9114 33.7425 38.9473 33.7425 38.9473C33.7425 38.9473 33.8475 39.0329 33.9275 39.0467C34.0076 39.0578 34.1759 39.1309 34.1676 39.0758C34.1622 39.0149 34.0655 38.9114 34.0352 38.8825C34.0022 38.8547 33.9663 38.8466 33.9663 38.8466Z" fill="#1E2325"/>
<path d="M10.8592 43.1929C10.8592 43.1929 10.6812 43.5378 10.7694 43.7271C10.8565 43.9176 11.0965 43.4247 11.0965 43.4247C11.0965 43.4247 11.3449 42.9333 11.2442 42.8437C11.1421 42.7526 11.0829 43.0065 10.8592 43.1929Z" fill="#1E2325"/>
<path d="M35.9838 87.5061V86.8356C35.9838 85.3117 36.7541 85.0136 39.0039 85.0027C41.0741 85.0136 41.8055 85.2731 41.8055 86.5871V91.6578H42.5701V92.8006H37.5131C36.4477 92.8006 35.7522 92.0691 35.7522 91.1692V90.1422C35.7522 89.2561 36.2047 88.4833 37.7893 88.4749H39.7657V86.9318C39.7657 86.1258 39.7105 86.0292 38.9019 86.0292H38.8935C37.9248 86.0292 37.8612 86.1563 37.8612 86.9318V87.5059L35.9838 87.5061ZM38.3305 89.3254C37.933 89.3254 37.6983 89.6455 37.6983 90.0429V91.0228C37.6983 91.4177 37.8668 91.7323 38.3305 91.7378H39.0426C39.4347 91.7378 39.755 91.6164 39.755 91.0228L39.7603 89.3254H39.0868C39.0703 89.3254 38.3305 89.3254 38.3305 89.3254Z" fill="#AAAAAA"/>
<path d="M31.1742 86.9127V85.1404H28.3531V86.195H29.1053V91.6549H28.3531V92.8006H31.8865V91.6549H31.1742V88.7291C31.1742 88.456 32.8373 86.3554 32.8373 86.598V89.5046H34.7919V86.2337C34.7919 85.4857 34.3031 85.0028 33.4115 85.0028C32.3514 85.0026 31.6351 86.3358 31.1742 86.9127Z" fill="#AAAAAA"/>
<path d="M53.6614 91.6496V85.1405H50.7822V86.195H51.5884V91.6496H50.7822V92.8006H54.4177V91.6496H53.6614Z" fill="#AAAAAA"/>
<path d="M23.9158 86.9127V85.1404H21.0947V86.195H21.8469V91.6549H21.0947V92.8006H24.6252V91.6549H23.9158V88.7291C23.9158 88.456 25.5775 86.3554 25.5775 86.598V89.5046H27.5304V86.2337C27.5304 85.4857 27.0445 85.0028 26.1517 85.0028C25.0943 85.0026 24.3767 86.3358 23.9158 86.9127Z" fill="#AAAAAA"/>
<path fill-rule="evenodd" clip-rule="evenodd" d="M20.0153 90.2913H18.0361V90.8655C18.0361 91.644 17.9064 91.677 16.9416 91.688H16.9278C15.8221 91.6935 15.8844 91.5832 15.8968 90.8655V89.5045H20.0151V86.5482C20.0151 85.477 19.2064 85.0271 17.0726 85.019H16.7663C14.4627 85.03 13.85 85.5545 13.85 86.8796V91.2076C13.85 92.665 14.7111 92.9108 16.809 92.9688H17.0379C19.3279 92.9162 20.0151 92.7588 20.0151 91.398L20.0153 90.2913ZM15.919 86.6585C15.919 86.2557 16.0405 86.0567 16.5014 86.0511H17.3695C17.7284 86.0511 17.9285 86.2114 17.9285 86.4983V88.715H15.9188L15.919 86.6585Z" fill="#AAAAAA"/>
<path d="M52.6182 83.5671V82.1814" stroke="#AAAAAA" stroke-width="0.74" stroke-miterlimit="10"/>
<path d="M46.1589 86.9127V85.1404H43.335V86.195H44.0859V91.6549H43.335V92.8006H46.8682V91.6549H46.1589V88.7291C46.1589 88.456 47.8179 86.3554 47.8179 86.598V89.5046H49.775V86.2337C49.775 85.4857 49.2833 85.0028 48.3888 85.0028C47.3347 85.0026 46.6168 86.3358 46.1589 86.9127Z" fill="#AAAAAA"/>
<path d="M11.3823 89.0767V88.0554H10.2824V91.6577H12.1883V92.8005H6.6001V91.6577H8.08651V83.5671H6.91895V82.1758H50.4454V83.5671H10.2824V86.8159H11.3823V85.8554H12.648V89.0767H11.3823Z" fill="#AAAAAA"/>
<path d="M53.6334 82.1261H51.5577V83.4953H53.6334V82.1261Z" fill="#AAAAAA"/>
</svg>
