<svg width="87" height="87" viewBox="0 0 87 87" fill="none" xmlns="http://www.w3.org/2000/svg">
<path d="M43.5 0C19.4771 0 0 19.4771 0 43.5C0 67.5229 19.4771 87 43.5 87C67.5229 87 87 67.5229 87 43.5C87 19.4771 67.5229 0 43.5 0ZM43.5 2.8275C65.9605 2.8275 84.1689 21.0359 84.1689 43.5C84.1689 65.9605 65.9641 84.1689 43.5 84.1689C21.0359 84.1689 2.83113 65.9605 2.83113 43.5C2.83113 21.0395 21.0395 2.8275 43.5 2.8275ZM41.0422 5.11125C39.846 5.162 38.6497 5.2635 37.4463 5.394L37.0584 16.066C37.9119 15.9216 38.7704 15.8079 39.6321 15.7252L39.8859 8.51875L39.8387 8.02213L39.9946 8.49337L42.4016 13.891H44.5984L47.0054 8.497L47.1504 8.02213L47.1141 8.51875L47.3679 15.7252C48.2089 15.805 49.0825 15.921 49.9416 16.066L49.5465 5.394C48.3514 5.25932 47.152 5.16502 45.9505 5.11125L43.5834 11.0019L43.5 11.4369L43.4166 11.0019L41.0422 5.11125ZM65.3152 11.7232L59.7219 20.5247C60.4288 21.0685 61.3604 21.8696 61.9585 22.417L67.2256 19.6838L67.5591 19.4336L67.309 19.7744L64.583 25.0415C65.1739 25.6759 66.0257 26.7017 66.5042 27.3253L75.313 21.7283C74.7728 21.0294 74.2168 20.3429 73.6455 19.6693L68.0666 23.345L67.686 23.6785L67.9688 23.2616L70.4338 18.3461L68.6938 16.6061L63.7782 19.0711L63.3614 19.3539L63.6912 18.9696L67.3815 13.3907C66.729 12.8398 66.1091 12.3359 65.3152 11.7232ZM19.9375 13.7206C18.6325 13.8548 17.6248 14.7465 14.8879 17.7987C13.9388 18.8743 13.0237 19.9792 12.1437 21.112L19.662 28.2424C22.1524 25.4874 23.1637 24.4651 25.1285 22.3953C26.5169 20.9271 27.3035 19.2415 25.9115 17.6211C25.1575 16.7439 23.8888 16.5518 22.8302 16.9867L22.7288 17.023L22.765 16.9288C22.8957 16.4478 22.8819 15.9389 22.7253 15.4657C22.5686 14.9925 22.2761 14.576 21.8841 14.268C21.6117 14.0532 21.2994 13.8946 20.9653 13.8012C20.6311 13.7079 20.2818 13.6781 19.9375 13.7206ZM19.9592 15.95C20.4522 15.8159 20.9634 16.1675 21.0758 16.675C21.1917 17.1825 20.8727 17.661 20.5175 18.0597C19.72 18.966 16.7801 22.04 16.7801 22.04L15.3229 20.6516C16.8345 18.8029 18.444 17.1209 19.1726 16.4539C19.3912 16.226 19.6608 16.0533 19.9592 15.95ZM43.5 17.7009C37.1142 17.6981 30.9545 20.0646 26.2133 24.3424C21.4721 28.6202 18.4867 34.5049 17.835 40.8574V40.8646C17.4254 44.8949 17.9699 48.965 19.4246 52.7458C20.8793 56.5266 23.2033 59.9121 26.2086 62.6284C29.214 65.3448 32.8164 67.3158 36.7246 68.382C40.6328 69.4483 44.737 69.5799 48.7055 68.7663C54.5225 67.5705 59.7483 64.4033 63.4998 59.7997C67.2513 55.1961 69.2986 49.4386 69.2955 43.5C69.2888 36.661 66.5688 30.1041 61.7325 25.2685C56.8963 20.433 50.339 17.7139 43.5 17.7081V17.7009ZM23.4284 18.5781C23.5987 18.5781 23.7764 18.6252 23.9359 18.734C24.2549 18.9479 24.3999 19.314 24.3201 19.6765C24.2259 20.1079 23.867 20.5139 23.577 20.8292L19.7889 24.8892L18.2664 23.4393C18.2664 23.4393 21.1193 20.4233 22.0545 19.4554C22.4242 19.0711 22.6635 18.8391 22.9172 18.7122C23.0744 18.6306 23.2514 18.5848 23.4284 18.5781ZM43.5 21.0903C46.4438 21.0869 49.3594 21.6643 52.0798 22.7893C54.8002 23.9143 57.2719 25.5649 59.3535 27.6465C61.4351 29.7281 63.0857 32.1998 64.2107 34.9202C65.3357 37.6406 65.9131 40.5562 65.9097 43.5H43.5V65.9097C40.5562 65.9131 37.6406 65.3357 34.9202 64.2107C32.1998 63.0857 29.7281 61.4351 27.6465 59.3535C25.5649 57.2719 23.9143 54.8002 22.7893 52.0798C21.6643 49.3594 21.0869 46.4438 21.0903 43.5H43.5V21.0903Z" fill="#AAAAAA"/>
</svg>
