<svg width="170" height="75" viewBox="0 0 170 75" fill="none" xmlns="http://www.w3.org/2000/svg">
<path d="M82.0237 39.2685C92.5926 39.2685 101.163 30.708 101.163 20.1343C101.163 9.56051 92.5926 1 82.0237 1C71.4532 1 62.8845 9.56051 62.8845 20.1343C62.8845 30.708 71.4532 39.2685 82.0237 39.2685Z" stroke="#AAAAAA" stroke-width="1.59179"/>
<path d="M93.6384 22.5076C93.2865 22.0821 92.9444 21.7383 92.5221 21.4601C92.6907 21.6238 92.8511 21.8038 93.0131 22.0002C93.5598 22.6549 93.8888 23.6698 93.8888 24.6191C93.8888 26.5178 92.6842 28.351 90.9328 29.1694C89.4826 29.8569 87.6215 30.1842 85.2121 30.1842C84.5279 30.1842 82.5572 30.1515 79.2738 30.1188C77.9022 30.1024 75.9167 30.1188 73.2749 30.1679V30.6917C76.231 30.6262 78.421 30.6098 79.8991 30.6262C83.1825 30.6589 85.1532 30.6917 85.8374 30.6917C88.2468 30.6917 90.1078 30.3643 91.5581 29.6768C93.3094 28.8584 94.5141 27.0252 94.5141 25.1265C94.5141 24.1772 94.1851 23.1624 93.6384 22.5076Z" fill="#AAAAAA"/>
<path d="M93.0951 15.4858C93.0951 16.3533 92.8496 17.2044 92.3831 17.9083C91.6449 19.0049 91.0654 19.3159 89.2878 19.7251C89.7429 19.8561 90.031 20.1016 90.3812 20.2162C91.7431 19.8561 92.3552 19.3978 93.0083 18.432C93.4748 17.7119 93.7203 16.8607 93.7203 15.9932C93.7203 14.5037 92.933 13.0797 91.6727 12.2122C92.5631 13.0797 93.0951 14.2582 93.0951 15.4858Z" fill="#AAAAAA"/>
<path d="M0 49.0566L9.04827 49.1385L16.26 49.0566C19.442 49.0566 20.9626 49.3022 22.6583 50.006C24.922 50.9717 26.4066 53.165 26.4066 55.4893C26.4066 56.6187 26.0874 57.7153 25.4867 58.6319C24.5324 60.056 23.6486 60.6125 21.3505 61.1526C24.1085 61.8892 25.1692 62.5275 26.3002 63.9024C27.0073 64.7536 27.4312 66.063 27.4312 67.307C27.4312 69.7458 25.8763 72.1029 23.6142 73.1668C21.7401 74.0507 19.3356 74.4763 16.2257 74.4763C15.3418 74.4763 12.7965 74.4435 8.55395 74.4108C6.64543 74.3617 3.81703 74.4108 0 74.4763V68.6001L2.08528 68.6819V54.8182L0 54.9V49.0566ZM11.8063 59.3849H13.1501C14.6347 59.3849 14.7051 59.3849 15.3058 59.1393C15.5889 59.0248 15.8361 58.8938 16.0489 58.6319C16.4728 58.1736 16.684 57.5517 16.684 56.8806C16.684 55.3093 15.7297 54.5399 13.8572 54.5399H13.7148L12.6542 54.5727L11.8063 54.5399V59.3849ZM11.8063 68.9275H12.4774C13.8212 68.9275 14.5643 68.8947 15.165 68.7474C16.2257 68.4691 16.9671 67.5198 16.9671 66.3413C16.9671 65.4902 16.5792 64.7209 15.9425 64.2953C15.3058 63.9352 14.7051 63.8043 12.7605 63.8043H11.8063V68.9275Z" fill="#AAAAAA"/>
<path d="M27.7847 68.6001L29.906 68.6819V54.8182L27.7847 54.9V49.0566L35.1012 49.1385L43.9743 49.0566C48.1809 49.0566 49.8783 49.4495 51.8588 50.8244C53.6609 52.0684 54.7216 54.229 54.7216 56.5205C54.7216 57.4044 54.5808 58.321 54.2273 59.1066C53.5905 60.7926 52.9178 61.4637 50.9389 62.5931L54.6152 68.6819L56.3125 68.6001V74.4763C54.2272 74.4435 52.6707 74.4108 51.61 74.4108C50.5494 74.4108 48.96 74.4435 46.8027 74.4763L42.2066 64.148H39.5909V68.6819L41.6059 68.6001V74.4763C38.6367 74.4435 36.4106 74.4108 34.9244 74.4108C33.3351 74.4108 30.9666 74.4435 27.7847 74.4763V68.6001ZM39.627 59.4831H41.4291C43.516 59.4831 44.5406 58.6319 44.5406 56.9788C44.5406 55.4238 43.5864 54.6382 41.5715 54.6382H39.627V59.4831Z" fill="#AAAAAA"/>
<path d="M57.9021 68.6001L59.8826 68.6819L63.8421 54.8182L61.7208 54.9V49.0566C65.8913 49.0894 68.9669 49.1385 71.0882 49.1385C73.3863 49.1385 76.8154 49.0894 81.4116 49.0566V54.9L79.2543 54.8182L83.2841 68.6819L85.2646 68.6001V74.4763C82.3658 74.4435 80.2085 74.4108 78.7599 74.4108C77.2393 74.4108 74.9412 74.4435 71.9017 74.4763V68.6001L73.9526 68.6819L73.3863 66.1613H66.7408L66.1041 68.6819L68.1894 68.6001V74.4763C65.857 74.4435 64.1236 74.4108 62.9926 74.4108C61.8272 74.4108 60.1658 74.4435 57.9021 74.4763V68.6001ZM67.8015 62.2493H72.2553L70.5939 56.1276L70.2747 54.7527L70.0276 53.4433C69.71 55.0964 69.6396 55.4893 69.5333 55.9149L67.8015 62.2493Z" fill="#AAAAAA"/>
<path d="M86.5789 49.0566L95.6288 49.1385L102.841 49.0566C106.021 49.0566 107.541 49.3022 109.239 50.006C111.501 50.9717 112.985 53.165 112.985 55.4893C112.985 56.6187 112.668 57.7153 112.066 58.6319C111.111 60.056 110.227 60.6125 107.931 61.1526C110.687 61.8892 111.748 62.5275 112.879 63.9024C113.586 64.7536 114.01 66.063 114.01 67.307C114.01 69.7458 112.455 72.1029 110.193 73.1668C108.319 74.0507 105.916 74.4763 102.805 74.4763C101.921 74.4763 99.3754 74.4435 95.1328 74.4108C93.2243 74.3617 90.3959 74.4108 86.5789 74.4763V68.6001L88.6642 68.6819V54.8182L86.5789 54.9V49.0566ZM98.3851 59.3849H99.729C101.214 59.3849 101.284 59.3849 101.885 59.1393C102.168 59.0248 102.415 58.8938 102.628 58.6319C103.052 58.1736 103.264 57.5517 103.264 56.8806C103.264 55.3093 102.31 54.5399 100.436 54.5399H100.295L99.2347 54.5727L98.3851 54.5399V59.3849ZM98.3851 68.9275H99.0579C100.4 68.9275 101.143 68.8947 101.744 68.7474C102.805 68.4691 103.548 67.5198 103.548 66.3413C103.548 65.4902 103.158 64.7209 102.521 64.2953C101.885 63.9352 101.284 63.8043 99.3394 63.8043H98.3851V68.9275Z" fill="#AAAAAA"/>
<path d="M114.472 49.0566C117.434 49.0894 119.693 49.1385 121.183 49.1385C122.639 49.1385 124.865 49.0894 127.763 49.0566V54.9L126.028 54.8182V65.4901C126.028 66.9796 126.093 67.4708 126.42 68.0109C126.813 68.682 127.795 69.0256 128.957 69.0256C130.054 69.0256 131.02 68.6492 131.429 67.9781C131.789 67.4707 131.871 66.9796 131.871 65.4901V54.8182L130.087 54.9V49.0566C132.247 49.0894 133.835 49.1385 134.899 49.1385C135.93 49.1385 137.371 49.0894 139.318 49.0566V54.9L137.551 54.8182V64.901C137.551 68.4037 136.7 70.4497 134.621 72.2502C132.575 73.9852 129.923 74.9018 126.879 74.9018C123.867 74.9018 121.215 73.9852 119.169 72.2502C117.123 70.4497 116.272 68.4037 116.272 64.901V54.8182L114.472 54.9V49.0566Z" fill="#AAAAAA"/>
<path d="M155.768 49.0566H161.562C161.497 51.3482 161.448 52.4448 161.448 53.6888V56.4059L155.719 56.4387C155.228 54.2617 154.131 53.2305 152.396 53.2305C151.103 53.2305 150.007 54.1471 150.007 55.211C150.007 55.522 150.105 55.8821 150.318 56.1276C150.563 56.4386 150.809 56.7006 151.169 56.8806C151.382 56.9788 151.693 57.1261 152.151 57.4043L153.706 58.1082C154.246 58.3865 154.835 58.6319 155.506 58.992C157.847 60.0559 158.06 60.1542 159.009 60.727C161.595 62.2165 162.905 64.2953 162.905 67.127C162.905 71.8574 159.156 75 153.46 75C152.364 75 151.234 74.9018 150.17 74.6236C148.73 74.2962 148.092 74.0179 146.717 72.954V74.4762H140.873C140.922 72.1847 140.988 71.0881 140.988 69.8768C140.988 69.0257 140.988 67.8308 140.922 66.2103H146.815C147.028 67.3397 147.24 67.7654 147.813 68.3546C148.55 69.1403 149.712 69.6313 150.891 69.6313C151.971 69.6313 152.871 68.8947 152.871 67.9781C152.871 66.9797 151.905 66.2104 149.008 64.9337C148.092 64.5081 147.486 64.2298 147.273 64.1152L145.44 63.1986C144.523 62.7403 143.705 62.3147 143.148 61.8892C141.266 60.727 140.169 58.5665 140.169 56.1604C140.169 51.6428 143.672 48.5328 148.861 48.5328C149.827 48.5328 150.776 48.5984 151.774 48.8112C153.362 49.0567 154.033 49.3022 155.768 50.0878V49.0566Z" fill="#AAAAAA"/>
<path d="M165.753 49.3348C167.586 49.3348 169.059 50.808 169.059 52.6412C169.059 54.458 167.586 55.9312 165.753 55.9312C163.936 55.9312 162.463 54.458 162.463 52.6412C162.463 50.808 163.936 49.3348 165.753 49.3348ZM163.871 54.5727C164.918 55.6366 166.62 55.6366 167.652 54.5727C168.716 53.4924 168.716 51.7737 167.652 50.6934C166.62 49.6294 164.918 49.6294 163.871 50.6934C163.363 51.2171 163.069 51.9046 163.069 52.6412C163.069 53.3614 163.363 54.0489 163.871 54.5727ZM164.574 50.7098H165.753C166.228 50.7098 166.44 50.7753 166.653 50.9389C166.85 51.0862 166.98 51.2827 167.03 51.5446C167.177 52.2157 166.882 52.6739 166.309 52.854C166.277 52.854 166.26 52.854 166.244 52.8703L167.308 54.4744H166.391L165.344 52.7722V54.4744H164.574V50.7098ZM165.622 52.4612C165.998 52.4612 166.195 52.2975 166.26 52.0192C166.359 51.61 166.113 51.3318 165.655 51.3318H165.344V52.4612H165.622Z" fill="#AAAAAA"/>
<path d="M70.553 9.46228L77.9317 9.51136L83.523 9.46228C85.988 9.46228 87.1666 9.6423 88.4825 10.1988C90.2372 10.9354 91.3879 12.6377 91.3879 14.4382C91.3879 15.322 91.1407 16.1732 90.6742 16.8934C89.9344 17.9737 89.2502 18.4156 87.4677 18.8248C89.6054 19.4141 90.4287 19.9051 91.306 20.969C91.8527 21.6237 92.1817 22.6386 92.1817 23.6043C92.1817 25.4866 90.977 27.3198 89.2224 28.1546C87.7705 28.842 85.9062 29.1694 83.4952 29.1694C82.8094 29.1694 80.837 29.1367 77.5487 29.1039C76.0674 29.0876 73.5123 29.1039 70.553 29.1694V24.6191L72.5335 24.6682V13.9308L70.553 13.9798V9.46228ZM80.0694 17.4663H81.1104C82.261 17.4663 82.3167 17.4662 82.7815 17.2698C83.0009 17.188 83.194 17.0734 83.3577 16.8934C83.6867 16.5333 83.8504 16.0259 83.8504 15.5185C83.8504 14.3072 83.1105 13.7016 81.6587 13.7016H81.549L80.7274 13.7343L80.0694 13.7016V17.4663ZM80.0694 24.8646H80.5898C81.6309 24.8646 82.207 24.8319 82.6719 24.7173C83.4952 24.5045 84.0697 23.7679 84.0697 22.8513C84.0697 22.1966 83.7685 21.591 83.2759 21.2636C82.7815 21.0017 82.3167 20.8872 80.8092 20.8872H80.0694V24.8646Z" stroke="#AAAAAA" stroke-width="2.05835"/>
</svg>
