<svg width="31" height="28" viewBox="0 0 31 28" fill="none" xmlns="http://www.w3.org/2000/svg">
<path d="M3.44444 10.5L6.02778 2.625H24.9722L27.5556 10.5M24.9722 19.25C24.2871 19.25 23.63 18.9734 23.1455 18.4812C22.6611 17.9889 22.3889 17.3212 22.3889 16.625C22.3889 15.9288 22.6611 15.2611 23.1455 14.7688C23.63 14.2766 24.2871 14 24.9722 14C25.6574 14 26.3144 14.2766 26.7989 14.7688C27.2834 15.2611 27.5556 15.9288 27.5556 16.625C27.5556 17.3212 27.2834 17.9889 26.7989 18.4812C26.3144 18.9734 25.6574 19.25 24.9722 19.25ZM6.02778 19.25C5.34264 19.25 4.68555 18.9734 4.20109 18.4812C3.71662 17.9889 3.44444 17.3212 3.44444 16.625C3.44444 15.9288 3.71662 15.2611 4.20109 14.7688C4.68555 14.2766 5.34264 14 6.02778 14C6.71292 14 7.37 14.2766 7.85447 14.7688C8.33894 15.2611 8.61111 15.9288 8.61111 16.625C8.61111 17.3212 8.33894 17.9889 7.85447 18.4812C7.37 18.9734 6.71292 19.25 6.02778 19.25ZM27.4178 1.75C27.0733 0.735 26.1089 0 24.9722 0H6.02778C4.89111 0 3.92667 0.735 3.58222 1.75L0 12.25V26.25C0 26.7141 0.181448 27.1593 0.504427 27.4874C0.827406 27.8156 1.26546 28 1.72222 28H3.44444C3.90121 28 4.33926 27.8156 4.66224 27.4874C4.98522 27.1593 5.16667 26.7141 5.16667 26.25V24.5H25.8333V26.25C25.8333 26.7141 26.0148 27.1593 26.3378 27.4874C26.6607 27.8156 27.0988 28 27.5556 28H29.2778C29.7345 28 30.1726 27.8156 30.4956 27.4874C30.8186 27.1593 31 26.7141 31 26.25V12.25L27.4178 1.75Z" fill="#E22E2E" fill-opacity="0.8"/>
</svg>
