<svg width="29" height="29" viewBox="0 0 29 29" fill="none" xmlns="http://www.w3.org/2000/svg">
<path d="M4.70405e-06 2.79385C0.000245697 2.28675 0.138435 1.78926 0.39977 1.35469C0.661105 0.92011 1.03574 0.564813 1.48354 0.326855C1.93135 0.0888967 2.43545 -0.022758 2.94186 0.00385156C3.44826 0.0304611 3.93789 0.194332 4.35829 0.477911C4.77869 0.76149 5.11402 1.15409 5.32837 1.61367C5.54272 2.07324 5.62801 2.58246 5.57511 3.0868C5.5222 3.59114 5.33309 4.07158 5.02804 4.47666C4.72298 4.88175 4.31347 5.19622 3.84338 5.38638V12.9264H12.9277V5.38638C12.3264 5.14313 11.8284 4.6983 11.519 4.12814C11.2097 3.55798 11.1083 2.89798 11.2322 2.26125C11.3561 1.62452 11.6976 1.05071 12.1982 0.638162C12.6987 0.225609 13.3272 6.36836e-07 13.9759 6.36836e-07C14.6246 6.36836e-07 15.253 0.225609 15.7536 0.638162C16.2542 1.05071 16.5957 1.62452 16.7196 2.26125C16.8435 2.89798 16.7421 3.55798 16.4328 4.12814C16.1234 4.6983 15.6254 5.14313 15.0241 5.38638V12.9264H19.5663C20.9135 12.9264 21.8192 12.9236 22.4942 12.8341C23.1385 12.7461 23.4152 12.5965 23.5969 12.4149C23.7786 12.2332 23.9281 11.9564 24.0162 11.3108C24.1056 10.6371 24.1084 9.73148 24.1084 8.38421V5.38638C23.5071 5.14313 23.0091 4.6983 22.6997 4.12814C22.3904 3.55798 22.289 2.89798 22.4129 2.26125C22.5368 1.62452 22.8783 1.05071 23.3789 0.638162C23.8795 0.225609 24.5079 6.36836e-07 25.1566 6.36836e-07C25.8053 6.36836e-07 26.4338 0.225609 26.9343 0.638162C27.4349 1.05071 27.7764 1.62452 27.9003 2.26125C28.0242 2.89798 27.9228 3.55798 27.6135 4.12814C27.3042 4.6983 26.8061 5.14313 26.2048 5.38638V8.45688C26.2048 9.71192 26.2048 10.7601 26.093 11.5903C25.9756 12.468 25.7156 13.2604 25.0783 13.8963C24.4424 14.5336 23.65 14.7936 22.7723 14.9109C21.9422 15.0228 20.8954 15.0228 19.6389 15.0228H15.0241V22.5628C15.6254 22.806 16.1234 23.2508 16.4328 23.821C16.7421 24.3912 16.8435 25.0512 16.7196 25.6879C16.5957 26.3246 16.2542 26.8984 15.7536 27.311C15.253 27.7235 14.6246 27.9491 13.9759 27.9491C13.3272 27.9491 12.6987 27.7235 12.1982 27.311C11.6976 26.8984 11.3561 26.3246 11.2322 25.6879C11.1083 25.0512 11.2097 24.3912 11.519 23.821C11.8284 23.2508 12.3264 22.806 12.9277 22.5628V15.0228H3.84338V22.5628C4.44471 22.806 4.94272 23.2508 5.25206 23.821C5.5614 24.3912 5.6628 25.0512 5.53889 25.6879C5.41499 26.3246 5.07348 26.8984 4.57291 27.311C4.07233 27.7235 3.44385 27.9491 2.79518 27.9491C2.14651 27.9491 1.51803 27.7235 1.01746 27.311C0.516885 26.8984 0.175381 26.3246 0.0514732 25.6879C-0.0724343 25.0512 0.0289702 24.3912 0.338308 23.821C0.647646 23.2508 1.14566 22.806 1.74699 22.5628V5.38638C1.23063 5.1775 0.788443 4.81911 0.477172 4.35718C0.165902 3.89526 -0.000259957 3.35086 4.70405e-06 2.79385Z" fill="#E22E2E" fill-opacity="0.8"/>
<path fill-rule="evenodd" clip-rule="evenodd" d="M21.3132 18.1673C21.3132 17.8893 21.4237 17.6227 21.6202 17.4261C21.8168 17.2296 22.0834 17.1191 22.3614 17.1191H25.5563C27.478 17.1191 29 18.704 29 20.6131C29.0025 21.3315 28.7837 22.0332 28.3734 22.6228C27.963 23.2125 27.381 23.6614 26.7065 23.9086L28.8448 27.4026C28.9168 27.52 28.9649 27.6504 28.9865 27.7863C29.008 27.9223 29.0026 28.0612 28.9705 28.195C28.9383 28.3289 28.8802 28.4551 28.7993 28.5665C28.7184 28.6779 28.6163 28.7723 28.4989 28.8442C28.3816 28.9162 28.2512 28.9643 28.1152 28.9858C27.9792 29.0074 27.8404 29.002 27.7065 28.9698C27.5726 28.9377 27.4464 28.8795 27.335 28.7986C27.2236 28.7177 27.1293 28.6157 27.0573 28.4983L24.3698 24.1071H23.4096V27.9505C23.4096 28.2285 23.2992 28.4951 23.1026 28.6916C22.906 28.8882 22.6394 28.9986 22.3614 28.9986C22.0834 28.9986 21.8168 28.8882 21.6202 28.6916C21.4237 28.4951 21.3132 28.2285 21.3132 27.9505V18.1673ZM23.4096 22.0107H25.5563C26.2803 22.0107 26.9036 21.4055 26.9036 20.6131C26.9036 19.8207 26.2803 19.2155 25.5563 19.2155H23.4096V22.0107Z" fill="#E22E2E" fill-opacity="0.8"/>
</svg>
