<svg width="30" height="30" viewBox="0 0 30 30" fill="none" xmlns="http://www.w3.org/2000/svg">
<path d="M15 27.8571C16.6884 27.8571 18.3603 27.5246 19.9202 26.8784C21.4801 26.2323 22.8975 25.2853 24.0914 24.0914C25.2853 22.8975 26.2323 21.4801 26.8785 19.9202C27.5246 18.3603 27.8571 16.6884 27.8571 15C27.8571 13.3116 27.5246 11.6397 26.8785 10.0798C26.2323 8.51988 25.2853 7.10252 24.0914 5.90863C22.8975 4.71473 21.4801 3.76768 19.9202 3.12155C18.3603 2.47542 16.6884 2.14286 15 2.14286C11.5901 2.14286 8.31981 3.49744 5.90863 5.90863C3.49744 8.31981 2.14286 11.5901 2.14286 15C2.14286 18.4099 3.49744 21.6802 5.90863 24.0914C8.31981 26.5026 11.5901 27.8571 15 27.8571ZM15 30C11.0218 30 7.20644 28.4196 4.3934 25.6066C1.58035 22.7936 0 18.9782 0 15C0 11.0218 1.58035 7.20644 4.3934 4.3934C7.20644 1.58035 11.0218 0 15 0C18.9782 0 22.7936 1.58035 25.6066 4.3934C28.4196 7.20644 30 11.0218 30 15C30 18.9782 28.4196 22.7936 25.6066 25.6066C22.7936 28.4196 18.9782 30 15 30Z" fill="#E22E2E" fill-opacity="0.8"/>
<path d="M4.28564 14.9999C4.28564 12.1583 5.41447 9.4331 7.42379 7.42379C9.4331 5.41447 12.1583 4.28564 14.9999 4.28564C17.8415 4.28564 20.5668 5.41447 22.5761 7.42379C24.5854 9.4331 25.7142 12.1583 25.7142 14.9999C25.7142 15.2841 25.6013 15.5566 25.4004 15.7575C25.1995 15.9585 24.9269 16.0714 24.6428 16.0714C24.3586 16.0714 24.0861 15.9585 23.8852 15.7575C23.6842 15.5566 23.5714 15.2841 23.5714 14.9999C23.5714 12.7266 22.6683 10.5465 21.0608 8.93901C19.4534 7.33156 17.2732 6.4285 14.9999 6.4285C12.7266 6.4285 10.5465 7.33156 8.93901 8.93901C7.33156 10.5465 6.4285 12.7266 6.4285 14.9999C6.4285 15.2841 6.31562 15.5566 6.11469 15.7575C5.91376 15.9585 5.64123 16.0714 5.35707 16.0714C5.07291 16.0714 4.80039 15.9585 4.59946 15.7575C4.39853 15.5566 4.28564 15.2841 4.28564 14.9999Z" fill="#E22E2E" fill-opacity="0.8"/>
<path d="M16.9563 18.8786C17.5576 19.3405 17.9763 20.0001 18.1383 20.7408C18.3003 21.4815 18.1952 22.2556 17.8417 22.9264C17.4882 23.5971 16.9089 24.1213 16.2063 24.4063C15.5037 24.6912 14.7229 24.7187 14.002 24.4837C13.2812 24.2487 12.6666 23.7664 12.2669 23.1221C11.8672 22.4778 11.7081 21.713 11.8177 20.9627C11.9274 20.2125 12.2988 19.5252 12.8662 19.0222C13.4336 18.5193 14.1605 18.2332 14.9185 18.2143L16.9606 11.9272C17.0029 11.792 17.0716 11.6665 17.1628 11.558C17.2539 11.4496 17.3657 11.3602 17.4915 11.2952C17.6174 11.2302 17.755 11.1908 17.8962 11.1793C18.0374 11.1678 18.1795 11.1844 18.3142 11.2282C18.449 11.272 18.5737 11.3421 18.6812 11.4344C18.7887 11.5267 18.8768 11.6394 18.9404 11.766C19.0041 11.8926 19.042 12.0305 19.0519 12.1719C19.0619 12.3132 19.0437 12.4551 18.9985 12.5894L16.9563 18.8765V18.8786ZM14.6678 22.4486C14.8017 22.4923 14.9429 22.5091 15.0834 22.4981C15.2238 22.4871 15.3607 22.4486 15.4863 22.3847C15.6119 22.3209 15.7236 22.2329 15.8152 22.1258C15.9067 22.0188 15.9763 21.8947 16.0199 21.7608C16.0635 21.6268 16.0803 21.4856 16.0694 21.3452C16.0584 21.2047 16.0199 21.0678 15.956 20.9422C15.8921 20.8167 15.8042 20.7049 15.6971 20.6134C15.59 20.5218 15.466 20.4523 15.332 20.4086C15.0615 20.3205 14.7671 20.3435 14.5135 20.4725C14.2599 20.6015 14.068 20.826 13.9799 21.0965C13.8918 21.367 13.9148 21.6614 14.0438 21.915C14.1728 22.1686 14.3972 22.3605 14.6678 22.4486Z" fill="#E22E2E" fill-opacity="0.8"/>
</svg>
